<svg width="237" height="291" viewBox="0 0 237 291" fill="none" xmlns="http://www.w3.org/2000/svg">
<mask id="path-1-inside-1" fill="white">
<path fill-rule="evenodd" clip-rule="evenodd" d="M127.168 5.43529C123.238 -0.554271 114.45 -0.554277 110.475 5.43528L2.41068 168.269C-2.00159 174.918 2.73333 183.777 10.699 183.777H90.3305L89.9631 281.707C89.9455 286.401 93.7368 290.207 98.4312 290.207H102.833C107.527 290.207 111.347 286.401 111.365 281.707L111.732 183.777L123.503 183.777L123.135 281.707C123.118 286.401 126.909 290.207 131.603 290.207H137.075C141.77 290.207 145.589 286.401 145.607 281.707L145.974 183.777L225.606 183.777C233.572 183.777 238.373 174.918 234.011 168.269L127.168 5.43529Z"/>
</mask>
<path fill-rule="evenodd" clip-rule="evenodd" d="M127.168 5.43529C123.238 -0.554271 114.45 -0.554277 110.475 5.43528L2.41068 168.269C-2.00159 174.918 2.73333 183.777 10.699 183.777H90.3305L89.9631 281.707C89.9455 286.401 93.7368 290.207 98.4312 290.207H102.833C107.527 290.207 111.347 286.401 111.365 281.707L111.732 183.777L123.503 183.777L123.135 281.707C123.118 286.401 126.909 290.207 131.603 290.207H137.075C141.77 290.207 145.589 286.401 145.607 281.707L145.974 183.777L225.606 183.777C233.572 183.777 238.373 174.918 234.011 168.269L127.168 5.43529Z" fill="#75B0EB"/>
<path d="M110.475 5.43528L112.973 7.08761L112.973 7.08761L110.475 5.43528ZM127.168 5.43529L129.678 3.78296L129.678 3.78296L127.168 5.43529ZM2.41068 168.269L-0.0870724 166.617L-0.0870725 166.617L2.41068 168.269ZM90.3305 183.777H93.3305L93.3417 180.777H90.3417L90.3305 183.777ZM111.365 281.707H114.365H111.365ZM111.732 183.777L111.743 180.777L108.743 180.777L108.732 183.777L111.732 183.777ZM123.503 183.777H126.503L126.514 180.777L123.514 180.777L123.503 183.777ZM145.974 183.777L145.986 180.777H142.986L142.974 183.777H145.974ZM225.606 183.777L225.618 180.777L225.606 183.777ZM234.011 168.269L231.501 169.921L231.501 169.921L234.011 168.269ZM112.973 7.08761C115.755 2.89492 121.907 2.89492 124.658 7.08762L129.678 3.78296C124.569 -4.00346 113.145 -4.00348 107.977 3.78295L112.973 7.08761ZM4.90843 169.921L112.973 7.08761L107.977 3.78295L-0.0870724 166.617L4.90843 169.921ZM10.7102 180.777C5.13429 180.777 1.81984 174.575 4.90843 169.921L-0.0870725 166.617C-5.82301 175.26 0.332372 186.777 10.6877 186.777L10.7102 180.777ZM90.3417 180.777H10.7102L10.6877 186.777H90.3192L90.3417 180.777ZM87.3305 183.777L86.9631 281.707H92.9631L93.3305 183.777H87.3305ZM86.9631 281.707C86.9393 288.058 92.0687 293.207 98.42 293.207L98.4425 287.207C95.4049 287.207 92.9517 284.744 92.9631 281.707H86.9631ZM98.42 293.207H102.822L102.844 287.207H98.4425L98.42 293.207ZM102.822 293.207C109.173 293.207 114.341 288.058 114.365 281.707H108.365C108.353 284.744 105.882 287.207 102.844 287.207L102.822 293.207ZM114.365 281.707L114.732 183.777L108.732 183.777L108.365 281.707H114.365ZM123.514 180.777L111.743 180.777L111.721 186.777L123.491 186.777L123.514 180.777ZM120.503 183.777L120.135 281.707H126.135L126.503 183.777H120.503ZM120.135 281.707C120.112 288.058 125.241 293.207 131.592 293.207L131.615 287.207C128.577 287.207 126.124 284.744 126.135 281.707H120.135ZM131.592 293.207H137.064L137.086 287.207H131.615L131.592 293.207ZM137.064 293.207C143.415 293.207 148.583 288.058 148.607 281.707H142.607C142.596 284.744 140.124 287.207 137.086 287.207L137.064 293.207ZM148.607 281.707L148.974 183.777H142.974L142.607 281.707H148.607ZM225.618 180.777L145.986 180.777L145.963 186.777L225.595 186.777L225.618 180.777ZM231.501 169.921C234.554 174.575 231.194 180.777 225.618 180.777L225.595 186.777C235.95 186.777 242.192 175.26 236.521 166.617L231.501 169.921ZM124.658 7.08761L231.501 169.921L236.521 166.617L129.678 3.78296L124.658 7.08761Z" fill="black" mask="url(#path-1-inside-1)"/>
<ellipse rx="2.33454" ry="2.34142" transform="matrix(0.994087 0.104916 -0.108025 0.994539 98.7836 66.5513)" fill="black"/>
<ellipse rx="2.33454" ry="2.34142" transform="matrix(0.994087 0.104916 -0.108025 0.994539 112.708 68.0208)" fill="black"/>
<path d="M86.5469 71.1477C92.2801 75.3076 107.733 81.9151 123.679 75.0666" stroke="black" stroke-width="3" stroke-linecap="round"/>
</svg>
