<svg width="144" height="173" viewBox="0 0 144 173" fill="none" xmlns="http://www.w3.org/2000/svg">
<mask id="path-1-inside-1" fill="white">
<path fill-rule="evenodd" clip-rule="evenodd" d="M108.655 133.675C129.688 121.133 143.776 98.1556 143.776 71.8881C143.776 32.1854 111.591 0 71.8881 0C32.1854 0 0 32.1854 0 71.8881C0 97.6961 13.5997 120.328 34.0235 133.008V161.312C34.0235 167.388 38.9484 172.312 45.0235 172.312H54.8518C60.927 172.312 65.8518 167.388 65.8518 161.312V143.526C67.842 143.692 69.8552 143.776 71.8881 143.776C73.5481 143.776 75.195 143.72 76.8269 143.609V161.312C76.8269 167.388 81.7518 172.312 87.8269 172.312H97.6552C103.73 172.312 108.655 167.388 108.655 161.312V133.675Z"/>
</mask>
<path fill-rule="evenodd" clip-rule="evenodd" d="M108.655 133.675C129.688 121.133 143.776 98.1556 143.776 71.8881C143.776 32.1854 111.591 0 71.8881 0C32.1854 0 0 32.1854 0 71.8881C0 97.6961 13.5997 120.328 34.0235 133.008V161.312C34.0235 167.388 38.9484 172.312 45.0235 172.312H54.8518C60.927 172.312 65.8518 167.388 65.8518 161.312V143.526C67.842 143.692 69.8552 143.776 71.8881 143.776C73.5481 143.776 75.195 143.72 76.8269 143.609V161.312C76.8269 167.388 81.7518 172.312 87.8269 172.312H97.6552C103.73 172.312 108.655 167.388 108.655 161.312V133.675Z" fill="#FCD707"/>
<path d="M108.655 133.675L106.863 130.669L105.155 131.687V133.675H108.655ZM34.0235 133.008H37.5235V131.061L35.8696 130.034L34.0235 133.008ZM65.8518 143.526L66.1418 140.038L62.3518 139.723V143.526H65.8518ZM76.8269 143.609H80.3269V139.864L76.59 140.117L76.8269 143.609ZM140.276 71.8881C140.276 96.8725 126.88 118.732 106.863 130.669L110.448 136.681C132.495 123.534 147.276 99.4387 147.276 71.8881H140.276ZM71.8881 3.5C109.658 3.5 140.276 34.1184 140.276 71.8881H147.276C147.276 30.2524 113.524 -3.5 71.8881 -3.5V3.5ZM3.5 71.8881C3.5 34.1184 34.1184 3.5 71.8881 3.5V-3.5C30.2524 -3.5 -3.5 30.2524 -3.5 71.8881H3.5ZM35.8696 130.034C16.431 117.966 3.5 96.4357 3.5 71.8881H-3.5C-3.5 98.9565 10.7683 122.69 32.1774 135.981L35.8696 130.034ZM30.5235 133.008V161.312H37.5235V133.008H30.5235ZM30.5235 161.312C30.5235 169.321 37.0154 175.812 45.0235 175.812V168.812C40.8814 168.812 37.5235 165.455 37.5235 161.312H30.5235ZM45.0235 175.812H54.8518V168.812H45.0235V175.812ZM54.8518 175.812C62.8599 175.812 69.3518 169.321 69.3518 161.312H62.3518C62.3518 165.455 58.994 168.812 54.8518 168.812V175.812ZM69.3518 161.312V143.526H62.3518V161.312H69.3518ZM71.8881 140.276C69.9521 140.276 68.0356 140.196 66.1418 140.038L65.5619 147.014C67.6484 147.188 69.7583 147.276 71.8881 147.276V140.276ZM76.59 140.117C75.0369 140.223 73.469 140.276 71.8881 140.276V147.276C73.6272 147.276 75.3531 147.217 77.0639 147.101L76.59 140.117ZM73.3269 143.609V161.312H80.3269V143.609H73.3269ZM73.3269 161.312C73.3269 169.321 79.8188 175.812 87.8269 175.812V168.812C83.6848 168.812 80.3269 165.455 80.3269 161.312H73.3269ZM87.8269 175.812H97.6552V168.812H87.8269V175.812ZM97.6552 175.812C105.663 175.812 112.155 169.321 112.155 161.312H105.155C105.155 165.455 101.797 168.812 97.6552 168.812V175.812ZM112.155 161.312V133.675H105.155V161.312H112.155Z" fill="black" mask="url(#path-1-inside-1)"/>
<circle cx="64.6531" cy="37.5145" r="2.39434" fill="black"/>
<circle cx="79.0189" cy="37.5145" r="2.39434" fill="black"/>
<path d="M52.6812 43.5004C58.99 47.1141 75.4844 52.1732 90.9906 43.5004" stroke="black" stroke-width="3.5" stroke-linecap="round"/>
</svg>
