<svg width="131" height="325" viewBox="0 0 131 325" fill="none" xmlns="http://www.w3.org/2000/svg">
<mask id="path-1-inside-1" fill="white">
<path fill-rule="evenodd" clip-rule="evenodd" d="M0 65.4735C0 29.3135 29.3135 0 65.4735 0C101.633 0 130.947 29.3135 130.947 65.4735V219.411C130.947 247.292 113.52 271.103 88.9639 280.544V316.368C88.9639 321.063 85.1583 324.868 80.4639 324.868H78.4716C73.7772 324.868 69.9716 321.063 69.9716 316.368V284.732C68.4853 284.833 66.9854 284.884 65.4735 284.884C63.6218 284.884 61.788 284.808 59.9753 284.657V316.368C59.9753 321.063 56.1697 324.868 51.4753 324.868H49.483C44.7885 324.868 40.983 321.063 40.983 316.368V280.15C16.9555 270.453 0 246.912 0 219.411V65.4735Z"/>
</mask>
<path fill-rule="evenodd" clip-rule="evenodd" d="M0 65.4735C0 29.3135 29.3135 0 65.4735 0C101.633 0 130.947 29.3135 130.947 65.4735V219.411C130.947 247.292 113.52 271.103 88.9639 280.544V316.368C88.9639 321.063 85.1583 324.868 80.4639 324.868H78.4716C73.7772 324.868 69.9716 321.063 69.9716 316.368V284.732C68.4853 284.833 66.9854 284.884 65.4735 284.884C63.6218 284.884 61.788 284.808 59.9753 284.657V316.368C59.9753 321.063 56.1697 324.868 51.4753 324.868H49.483C44.7885 324.868 40.983 321.063 40.983 316.368V280.15C16.9555 270.453 0 246.912 0 219.411V65.4735Z" fill="#E28571"/>
<path d="M88.9639 280.544L87.7078 277.277L85.4639 278.14V280.544H88.9639ZM69.9716 284.732H73.4716V280.987L69.7346 281.24L69.9716 284.732ZM59.9753 284.657L60.2653 281.169L56.4753 280.854V284.657H59.9753ZM40.983 280.15H44.483V277.789L42.2929 276.905L40.983 280.15ZM65.4735 -3.5C27.3805 -3.5 -3.5 27.3805 -3.5 65.4735H3.5C3.5 31.2465 31.2465 3.5 65.4735 3.5V-3.5ZM134.447 65.4735C134.447 27.3805 103.566 -3.5 65.4735 -3.5V3.5C99.7005 3.5 127.447 31.2465 127.447 65.4735H134.447ZM134.447 219.411V65.4735H127.447V219.411H134.447ZM90.22 283.811C116.083 273.867 134.447 248.788 134.447 219.411H127.447C127.447 245.796 110.957 268.338 87.7078 277.277L90.22 283.811ZM85.4639 280.544V316.368H92.4639V280.544H85.4639ZM85.4639 316.368C85.4639 319.13 83.2253 321.368 80.4639 321.368V328.368C87.0913 328.368 92.4639 322.996 92.4639 316.368H85.4639ZM80.4639 321.368H78.4716V328.368H80.4639V321.368ZM78.4716 321.368C75.7102 321.368 73.4716 319.13 73.4716 316.368H66.4716C66.4716 322.996 71.8442 328.368 78.4716 328.368V321.368ZM73.4716 316.368V284.732H66.4716V316.368H73.4716ZM65.4735 288.384C67.0645 288.384 68.6434 288.331 70.2085 288.224L69.7346 281.24C68.3271 281.336 66.9062 281.384 65.4735 281.384V288.384ZM59.6852 288.145C61.5944 288.304 63.5249 288.384 65.4735 288.384V281.384C63.7187 281.384 61.9817 281.312 60.2653 281.169L59.6852 288.145ZM63.4753 316.368V284.657H56.4753V316.368H63.4753ZM51.4753 328.368C58.1027 328.368 63.4753 322.996 63.4753 316.368H56.4753C56.4753 319.13 54.2367 321.368 51.4753 321.368V328.368ZM49.483 328.368H51.4753V321.368H49.483V328.368ZM37.483 316.368C37.483 322.996 42.8555 328.368 49.483 328.368V321.368C46.7215 321.368 44.483 319.13 44.483 316.368H37.483ZM37.483 280.15V316.368H44.483V280.15H37.483ZM-3.5 219.411C-3.5 248.388 14.3675 273.183 39.673 283.396L42.2929 276.905C19.5434 267.723 3.5 245.436 3.5 219.411H-3.5ZM-3.5 65.4735V219.411H3.5V65.4735H-3.5Z" fill="black" mask="url(#path-1-inside-1)"/>
<circle cx="77.8235" cy="154.951" r="2.39434" fill="black"/>
<circle cx="92.1893" cy="154.951" r="2.39434" fill="black"/>
<path d="M65.8516 160.937C72.1605 164.551 88.6548 169.61 104.161 160.937" stroke="black" stroke-width="3.5" stroke-linecap="round"/>
</svg>
