<svg width="242" height="297" viewBox="0 0 242 297" fill="none" xmlns="http://www.w3.org/2000/svg">
<mask id="path-1-inside-1" fill="white">
<path fill-rule="evenodd" clip-rule="evenodd" d="M129.011 4.48066C125.057 -1.49355 116.287 -1.49356 112.333 4.48065L1.67785 171.664C-2.72213 178.312 2.0448 187.183 10.0167 187.183H92.1365V287.515C92.1365 292.21 95.9421 296.015 100.637 296.015H105.587C110.282 296.015 114.087 292.21 114.087 287.515V187.183H126.16V287.515C126.16 292.21 129.965 296.015 134.66 296.015H140.708C145.402 296.015 149.208 292.21 149.208 287.515V187.183H231.328C239.299 187.183 244.066 178.312 239.666 171.664L129.011 4.48066Z"/>
</mask>
<path fill-rule="evenodd" clip-rule="evenodd" d="M129.011 4.48066C125.057 -1.49355 116.287 -1.49356 112.333 4.48065L1.67785 171.664C-2.72213 178.312 2.0448 187.183 10.0167 187.183H92.1365V287.515C92.1365 292.21 95.9421 296.015 100.637 296.015H105.587C110.282 296.015 114.087 292.21 114.087 287.515V187.183H126.16V287.515C126.16 292.21 129.965 296.015 134.66 296.015H140.708C145.402 296.015 149.208 292.21 149.208 287.515V187.183H231.328C239.299 187.183 244.066 178.312 239.666 171.664L129.011 4.48066Z" fill="#C7D220"/>
<path d="M112.333 4.48065L109.415 2.54888L109.415 2.54888L112.333 4.48065ZM129.011 4.48066L131.93 2.54889L131.93 2.54889L129.011 4.48066ZM1.67785 171.664L-1.24076 169.732L-1.24076 169.732L1.67785 171.664ZM92.1365 187.183H95.6365V183.683H92.1365V187.183ZM114.087 187.183V183.683H110.587V187.183H114.087ZM126.16 187.183H129.66V183.683H126.16V187.183ZM149.208 187.183V183.683H145.708V187.183H149.208ZM239.666 171.664L242.585 169.732L242.585 169.732L239.666 171.664ZM115.252 6.41242C117.822 2.52919 123.522 2.52919 126.092 6.41243L131.93 2.54889C126.591 -5.51629 114.753 -5.5163 109.415 2.54888L115.252 6.41242ZM4.59646 173.596L115.252 6.41242L109.415 2.54888L-1.24076 169.732L4.59646 173.596ZM10.0167 183.683C4.83498 183.683 1.73647 177.917 4.59646 173.596L-1.24076 169.732C-7.18073 178.707 -0.745371 190.683 10.0167 190.683V183.683ZM92.1365 183.683H10.0167V190.683H92.1365V183.683ZM88.6365 187.183V287.515H95.6365V187.183H88.6365ZM88.6365 287.515C88.6365 294.143 94.0091 299.515 100.637 299.515V292.515C97.8751 292.515 95.6365 290.277 95.6365 287.515H88.6365ZM100.637 299.515H105.587V292.515H100.637V299.515ZM105.587 299.515C112.215 299.515 117.587 294.143 117.587 287.515H110.587C110.587 290.277 108.349 292.515 105.587 292.515V299.515ZM117.587 287.515V187.183H110.587V287.515H117.587ZM126.16 183.683H114.087V190.683H126.16V183.683ZM122.66 187.183V287.515H129.66V187.183H122.66ZM122.66 287.515C122.66 294.143 128.032 299.515 134.66 299.515V292.515C131.898 292.515 129.66 290.277 129.66 287.515H122.66ZM134.66 299.515H140.708V292.515H134.66V299.515ZM140.708 299.515C147.335 299.515 152.708 294.143 152.708 287.515H145.708C145.708 290.277 143.469 292.515 140.708 292.515V299.515ZM152.708 287.515V187.183H145.708V287.515H152.708ZM231.328 183.683H149.208V190.683H231.328V183.683ZM236.748 173.596C239.608 177.917 236.509 183.683 231.328 183.683V190.683C242.09 190.683 248.525 178.707 242.585 169.732L236.748 173.596ZM126.092 6.41243L236.748 173.596L242.585 169.732L131.93 2.54889L126.092 6.41243Z" fill="black" mask="url(#path-1-inside-1)"/>
<circle cx="94.075" cy="117.812" r="2.39434" fill="black"/>
<circle cx="108.441" cy="117.812" r="2.39434" fill="black"/>
<path d="M82.103 123.798C88.4119 127.412 104.906 132.471 120.412 123.798" stroke="black" stroke-width="3.5" stroke-linecap="round"/>
</svg>
