<svg width="424" height="290" viewBox="0 0 424 290" fill="none" xmlns="http://www.w3.org/2000/svg">
<rect width="424" height="290" fill="#FFC5EF"/>
<path fill-rule="evenodd" clip-rule="evenodd" d="M240.046 47.1396L314.31 65.8793C328.993 69.5793 342.15 77.5247 352.116 88.7104C362.083 99.8962 368.411 113.82 370.301 128.72C372.191 143.62 369.557 158.827 362.732 172.418C355.908 186.009 345.2 197.373 331.962 205.073C331.575 205.298 331.186 205.519 330.796 205.737C338.286 217.238 345.215 230.007 344.844 232.163C342.97 243.02 334.406 241.668 331.298 240.35C330.146 239.861 326.253 224.6 322.762 209.652C311.902 214.205 300.138 216.284 288.365 215.673C273.177 214.886 258.656 209.656 246.639 200.647C234.622 191.637 225.648 179.252 220.853 165.059C220.229 163.211 219.679 161.344 219.204 159.462C225.147 161.659 231.712 162.437 238.422 161.443C259.732 158.284 274.447 138.448 271.289 117.138C268.274 96.8013 250.072 82.471 229.893 83.9497L240.046 47.1396Z" fill="#F26040"/>
<path d="M314.31 65.8793L313.943 67.3337L313.943 67.3338L314.31 65.8793ZM240.046 47.1396L240.413 45.6852L238.99 45.3261L238.6 46.7408L240.046 47.1396ZM352.116 88.7104L350.997 89.7083L350.997 89.7083L352.116 88.7104ZM370.301 128.72L368.813 128.909L370.301 128.72ZM331.962 205.073L332.716 206.369L331.962 205.073ZM330.796 205.737L330.064 204.428L328.664 205.211L329.539 206.556L330.796 205.737ZM344.844 232.163L346.322 232.418L344.844 232.163ZM331.298 240.35L330.712 241.731L330.712 241.731L331.298 240.35ZM322.762 209.652L324.223 209.311L323.819 207.583L322.182 208.269L322.762 209.652ZM288.365 215.673L288.287 217.171L288.365 215.673ZM246.639 200.647L247.539 199.447L246.639 200.647ZM220.853 165.059L222.274 164.579L220.853 165.059ZM219.204 159.462L219.724 158.055L217.053 157.067L217.75 159.829L219.204 159.462ZM229.893 83.9497L228.447 83.5508L227.882 85.6011L230.003 85.4456L229.893 83.9497ZM314.677 64.4249L240.413 45.6852L239.679 48.594L313.943 67.3337L314.677 64.4249ZM353.236 87.7126C343.068 76.3001 329.647 68.1973 314.676 64.4248L313.943 67.3338C328.339 70.9613 341.232 78.7493 350.997 89.7083L353.236 87.7126ZM371.789 128.531C369.861 113.331 363.405 99.1252 353.236 87.7126L350.997 89.7083C360.761 100.667 366.961 114.308 368.813 128.909L371.789 128.531ZM364.073 173.091C371.029 159.238 373.717 143.731 371.789 128.531L368.813 128.909C370.665 143.509 368.084 158.417 361.392 171.745L364.073 173.091ZM332.716 206.369C346.204 198.524 357.117 186.945 364.073 173.091L361.392 171.745C354.699 185.074 344.195 196.222 331.208 203.776L332.716 206.369ZM331.528 207.047C331.926 206.824 332.322 206.599 332.716 206.369L331.208 203.776C330.828 203.997 330.447 204.214 330.064 204.428L331.528 207.047ZM329.539 206.556C333.264 212.276 336.847 218.306 339.446 223.162C340.747 225.593 341.789 227.707 342.478 229.328C342.824 230.142 343.069 230.802 343.214 231.3C343.382 231.876 343.347 232.012 343.365 231.908L346.322 232.418C346.433 231.774 346.263 231.039 346.094 230.46C345.902 229.802 345.608 229.021 345.239 228.154C344.5 226.416 343.411 224.215 342.091 221.747C339.445 216.804 335.818 210.7 332.053 204.919L329.539 206.556ZM343.365 231.908C342.508 236.878 340.226 238.729 338.091 239.389C335.779 240.104 333.241 239.545 331.884 238.969L330.712 241.731C332.463 242.473 335.761 243.25 338.977 242.255C342.369 241.206 345.306 238.304 346.322 232.418L343.365 231.908ZM331.884 238.969C332.115 239.067 332.243 239.2 332.273 239.231C332.313 239.274 332.324 239.296 332.308 239.27C332.274 239.219 332.208 239.1 332.11 238.884C331.918 238.46 331.677 237.822 331.391 236.972C330.824 235.282 330.13 232.895 329.355 230.031C327.808 224.311 325.967 216.778 324.223 209.311L321.302 209.993C323.049 217.473 324.899 225.045 326.459 230.815C327.238 233.696 327.951 236.15 328.547 237.926C328.844 238.809 329.123 239.56 329.378 240.123C329.503 240.4 329.642 240.674 329.794 240.907C329.87 241.024 329.969 241.161 330.092 241.291C330.204 241.41 330.409 241.602 330.712 241.731L331.884 238.969ZM288.287 217.171C300.287 217.794 312.276 215.674 323.342 211.036L322.182 208.269C311.527 212.735 299.988 214.774 288.442 214.175L288.287 217.171ZM245.739 201.847C257.998 211.038 272.806 216.368 288.287 217.171L288.442 214.175C273.548 213.403 259.314 208.275 247.539 199.447L245.739 201.847ZM219.432 165.539C224.324 180.02 233.48 192.656 245.739 201.847L247.539 199.447C235.763 190.618 226.972 178.484 222.274 164.579L219.432 165.539ZM217.75 159.829C218.234 161.749 218.795 163.654 219.432 165.539L222.274 164.579C221.662 162.769 221.124 160.939 220.658 159.094L217.75 159.829ZM238.202 159.959C231.747 160.915 225.437 160.167 219.724 158.055L218.684 160.868C224.857 163.151 231.676 163.959 238.642 162.926L238.202 159.959ZM269.805 117.358C272.842 137.849 258.693 156.922 238.202 159.959L238.642 162.926C260.772 159.646 276.052 139.048 272.773 116.918L269.805 117.358ZM230.003 85.4456C249.404 84.024 266.907 97.8039 269.805 117.358L272.773 116.918C269.642 95.7986 250.739 80.918 229.784 82.4537L230.003 85.4456ZM238.6 46.7408L228.447 83.5508L231.339 84.3485L241.492 47.5384L238.6 46.7408Z" fill="black"/>
<circle cx="320.729" cy="162.49" r="2.12518" fill="black"/>
<circle cx="333.481" cy="162.49" r="2.12518" fill="black"/>
<path d="M310.104 167.803C315.703 171.01 330.343 175.501 344.106 167.803" stroke="black" stroke-width="3" stroke-linecap="round"/>
<path fill-rule="evenodd" clip-rule="evenodd" d="M162.177 47.1396L236.441 65.8793C251.124 69.5793 264.281 77.5247 274.247 88.7104C284.214 99.8962 290.542 113.82 292.432 128.72C294.322 143.62 291.688 158.827 284.863 172.418C278.039 186.009 267.331 197.373 254.093 205.073C253.706 205.298 253.317 205.519 252.927 205.737C260.417 217.238 267.346 230.007 266.975 232.163C265.101 243.02 256.537 241.668 253.429 240.35C252.277 239.861 248.384 224.6 244.893 209.652C234.033 214.205 222.269 216.284 210.496 215.673C195.308 214.886 180.787 209.656 168.77 200.647C156.753 191.637 147.779 179.252 142.984 165.059C142.36 163.211 141.81 161.344 141.335 159.462C147.278 161.659 153.843 162.437 160.553 161.443C181.863 158.284 196.578 138.448 193.42 117.138C190.405 96.8013 172.203 82.471 152.024 83.9497L162.177 47.1396Z" fill="#F8B566"/>
<path d="M236.441 65.8793L236.074 67.3337L236.074 67.3338L236.441 65.8793ZM162.177 47.1396L162.544 45.6852L161.121 45.3261L160.731 46.7408L162.177 47.1396ZM274.247 88.7104L275.367 87.7126L275.367 87.7126L274.247 88.7104ZM292.432 128.72L293.92 128.531L292.432 128.72ZM254.093 205.073L254.847 206.369L254.847 206.369L254.093 205.073ZM252.927 205.737L252.195 204.428L250.795 205.211L251.67 206.556L252.927 205.737ZM266.975 232.163L268.453 232.418L266.975 232.163ZM253.429 240.35L252.843 241.731L252.843 241.731L253.429 240.35ZM244.893 209.652L246.354 209.311L245.95 207.583L244.313 208.269L244.893 209.652ZM210.496 215.673L210.418 217.171L210.496 215.673ZM168.77 200.647L169.67 199.447L168.77 200.647ZM142.984 165.059L144.405 164.579L142.984 165.059ZM141.335 159.462L141.855 158.055L139.184 157.067L139.881 159.829L141.335 159.462ZM152.024 83.9497L150.578 83.5509L150.013 85.6011L152.134 85.4457L152.024 83.9497ZM236.808 64.4249L162.544 45.6852L161.81 48.594L236.074 67.3337L236.808 64.4249ZM275.367 87.7126C265.199 76.3001 251.778 68.1973 236.807 64.4248L236.074 67.3338C250.469 70.9613 263.363 78.7493 273.128 89.7083L275.367 87.7126ZM293.92 128.531C291.992 113.331 285.536 99.1252 275.367 87.7126L273.128 89.7083C282.892 100.667 289.092 114.308 290.944 128.909L293.92 128.531ZM286.204 173.091C293.16 159.238 295.848 143.731 293.92 128.531L290.944 128.909C292.796 143.509 290.215 158.417 283.523 171.745L286.204 173.091ZM254.847 206.369C268.335 198.524 279.248 186.945 286.204 173.091L283.523 171.745C276.83 185.074 266.326 196.222 253.339 203.776L254.847 206.369ZM253.659 207.047C254.057 206.824 254.453 206.599 254.847 206.369L253.339 203.776C252.959 203.997 252.578 204.214 252.195 204.428L253.659 207.047ZM251.67 206.556C255.395 212.276 258.977 218.306 261.577 223.162C262.878 225.593 263.92 227.707 264.609 229.328C264.955 230.142 265.2 230.802 265.345 231.3C265.513 231.876 265.478 232.012 265.496 231.908L268.453 232.418C268.564 231.774 268.394 231.039 268.225 230.46C268.033 229.802 267.739 229.021 267.37 228.154C266.631 226.416 265.542 224.215 264.222 221.747C261.576 216.804 257.949 210.7 254.184 204.919L251.67 206.556ZM265.496 231.908C264.639 236.878 262.357 238.729 260.222 239.389C257.91 240.104 255.372 239.545 254.015 238.969L252.843 241.731C254.593 242.473 257.892 243.25 261.108 242.255C264.5 241.206 267.437 238.304 268.453 232.418L265.496 231.908ZM254.015 238.969C254.246 239.067 254.374 239.2 254.403 239.231C254.444 239.274 254.455 239.296 254.439 239.27C254.405 239.219 254.339 239.1 254.241 238.884C254.049 238.46 253.808 237.822 253.522 236.972C252.955 235.282 252.261 232.895 251.486 230.031C249.939 224.311 248.098 216.778 246.354 209.311L243.433 209.993C245.179 217.473 247.03 225.045 248.59 230.815C249.369 233.696 250.082 236.15 250.678 237.926C250.974 238.809 251.254 239.56 251.508 240.123C251.634 240.4 251.773 240.674 251.925 240.907C252.001 241.024 252.1 241.161 252.223 241.291C252.335 241.41 252.54 241.602 252.843 241.731L254.015 238.969ZM210.418 217.171C222.418 217.794 234.407 215.674 245.473 211.036L244.313 208.269C233.658 212.735 222.119 214.774 210.573 214.175L210.418 217.171ZM167.87 201.847C180.129 211.038 194.937 216.368 210.418 217.171L210.573 214.175C195.679 213.403 181.445 208.275 169.67 199.447L167.87 201.847ZM141.563 165.539C146.455 180.02 155.611 192.656 167.87 201.847L169.67 199.447C157.894 190.618 149.103 178.484 144.405 164.579L141.563 165.539ZM139.881 159.829C140.365 161.749 140.926 163.654 141.563 165.539L144.405 164.579C143.793 162.769 143.255 160.939 142.789 159.094L139.881 159.829ZM160.333 159.959C153.878 160.915 147.568 160.167 141.855 158.055L140.815 160.868C146.988 163.151 153.807 163.959 160.773 162.926L160.333 159.959ZM191.936 117.358C194.973 137.849 180.824 156.922 160.333 159.959L160.773 162.926C182.903 159.646 198.183 139.048 194.903 116.918L191.936 117.358ZM152.134 85.4457C171.535 84.024 189.038 97.8039 191.936 117.358L194.903 116.918C191.773 95.7986 172.87 80.918 151.915 82.4537L152.134 85.4457ZM160.731 46.7408L150.578 83.5509L153.47 84.3485L163.623 47.5384L160.731 46.7408Z" fill="black"/>
<circle cx="242.861" cy="162.49" r="2.12518" fill="black"/>
<circle cx="255.612" cy="162.49" r="2.12518" fill="black"/>
<path d="M232.235 167.803C237.834 171.01 252.474 175.501 266.238 167.803" stroke="black" stroke-width="3" stroke-linecap="round"/>
<path fill-rule="evenodd" clip-rule="evenodd" d="M74.6837 51.5144L148.948 70.2541C163.631 73.9541 176.788 81.8995 186.754 93.0852C196.721 104.271 203.049 118.194 204.939 133.095C206.829 147.995 204.195 163.202 197.37 176.793C190.546 190.384 179.838 201.748 166.6 209.447C166.213 209.672 165.824 209.894 165.434 210.112C172.924 221.613 179.853 234.382 179.482 236.537C177.608 247.395 169.044 246.043 165.936 244.725C164.784 244.236 160.891 228.974 157.4 214.027C146.54 218.579 134.776 220.659 123.003 220.048C107.815 219.26 93.2941 214.031 81.2769 205.022C69.2597 196.012 60.2859 183.627 55.4908 169.434C54.8667 167.586 54.317 165.719 53.8419 163.836C59.7853 166.034 66.3496 166.812 73.0601 165.817C94.3703 162.659 109.085 142.823 105.927 121.513C102.912 101.176 84.7095 86.8458 64.5314 88.3244L74.6837 51.5144Z" fill="#FFF740"/>
<path d="M148.948 70.2541L148.581 71.7085L148.581 71.7086L148.948 70.2541ZM74.6837 51.5144L75.0507 50.0599L73.6278 49.7009L73.2377 51.1155L74.6837 51.5144ZM186.754 93.0852L187.874 92.0873L187.874 92.0873L186.754 93.0852ZM197.37 176.793L198.711 177.466L197.37 176.793ZM166.6 209.447L165.846 208.151L165.846 208.151L166.6 209.447ZM165.434 210.112L164.702 208.803L163.302 209.586L164.177 210.931L165.434 210.112ZM179.482 236.537L180.96 236.792L179.482 236.537ZM165.936 244.725L165.35 246.105L165.35 246.105L165.936 244.725ZM157.4 214.027L158.861 213.686L158.457 211.957L156.82 212.644L157.4 214.027ZM123.003 220.048L123.08 218.55L123.003 220.048ZM81.2769 205.022L82.1766 203.821L81.2769 205.022ZM55.4908 169.434L56.9119 168.953L55.4908 169.434ZM53.8419 163.836L54.3622 162.429L51.6905 161.441L52.3875 164.203L53.8419 163.836ZM64.5314 88.3244L63.0854 87.9256L62.5199 89.9758L64.641 89.8204L64.5314 88.3244ZM149.315 68.7996L75.0507 50.0599L74.3167 52.9688L148.581 71.7085L149.315 68.7996ZM187.874 92.0873C177.706 80.6748 164.285 72.5721 149.314 68.7995L148.581 71.7086C162.976 75.3361 175.87 83.1241 185.634 94.0831L187.874 92.0873ZM206.427 132.906C204.499 117.706 198.043 103.5 187.874 92.0873L185.634 94.0831C195.399 105.042 201.599 118.683 203.451 133.283L206.427 132.906ZM198.711 177.466C205.667 163.612 208.355 148.105 206.427 132.906L203.451 133.283C205.302 147.884 202.722 162.792 196.03 176.12L198.711 177.466ZM167.354 210.744C180.842 202.899 191.755 191.319 198.711 177.466L196.03 176.12C189.337 189.448 178.833 200.597 165.846 208.151L167.354 210.744ZM166.166 211.421C166.564 211.199 166.96 210.973 167.354 210.744L165.846 208.151C165.466 208.371 165.085 208.589 164.702 208.803L166.166 211.421ZM164.177 210.931C167.902 216.65 171.484 222.681 174.084 227.537C175.385 229.968 176.427 232.082 177.116 233.703C177.462 234.517 177.707 235.177 177.852 235.675C178.02 236.251 177.985 236.387 178.003 236.282L180.96 236.792C181.071 236.149 180.901 235.414 180.732 234.835C180.54 234.177 180.246 233.396 179.877 232.529C179.138 230.791 178.049 228.589 176.729 226.121C174.083 221.179 170.456 215.075 166.691 209.294L164.177 210.931ZM178.003 236.282C177.146 241.253 174.864 243.104 172.729 243.764C170.417 244.479 167.879 243.92 166.522 243.344L165.35 246.105C167.101 246.848 170.399 247.624 173.615 246.63C177.007 245.581 179.944 242.679 180.96 236.792L178.003 236.282ZM166.522 243.344C166.753 243.442 166.881 243.574 166.91 243.606C166.951 243.649 166.962 243.67 166.946 243.645C166.912 243.594 166.846 243.475 166.748 243.259C166.556 242.835 166.315 242.197 166.029 241.347C165.462 239.657 164.768 237.27 163.993 234.406C162.446 228.686 160.605 221.153 158.861 213.686L155.94 214.368C157.686 221.848 159.537 229.42 161.097 235.189C161.876 238.07 162.589 240.525 163.185 242.301C163.482 243.184 163.761 243.935 164.015 244.497C164.141 244.775 164.28 245.049 164.432 245.282C164.508 245.399 164.607 245.536 164.73 245.666C164.842 245.785 165.047 245.977 165.35 246.105L166.522 243.344ZM122.925 221.546C134.925 222.169 146.914 220.049 157.98 215.41L156.82 212.644C146.165 217.11 134.626 219.149 123.08 218.55L122.925 221.546ZM80.3771 206.222C92.6358 215.412 107.444 220.743 122.925 221.546L123.08 218.55C108.186 217.778 93.9523 212.65 82.1766 203.821L80.3771 206.222ZM54.0697 169.914C58.9621 184.395 68.118 197.031 80.3771 206.222L82.1766 203.821C70.4013 194.993 61.6098 182.859 56.9119 168.953L54.0697 169.914ZM52.3875 164.203C52.8722 166.124 53.433 168.029 54.0697 169.914L56.9119 168.953C56.3004 167.143 55.7619 165.314 55.2963 163.469L52.3875 164.203ZM72.8402 164.333C66.3852 165.29 60.0752 164.542 54.3622 162.429L53.3217 165.243C59.4954 167.526 66.3141 168.334 73.2801 167.301L72.8402 164.333ZM104.443 121.733C107.48 142.224 93.3309 161.296 72.8402 164.333L73.2801 167.301C95.4097 164.021 110.69 143.423 107.41 121.293L104.443 121.733ZM64.641 89.8204C84.0417 88.3987 101.545 102.179 104.443 121.733L107.41 121.293C104.28 100.173 85.3773 85.2928 64.4218 86.8284L64.641 89.8204ZM73.2377 51.1155L63.0854 87.9256L65.9774 88.7232L76.1297 51.9132L73.2377 51.1155Z" fill="black"/>
<circle cx="155.367" cy="166.864" r="2.12518" fill="black"/>
<circle cx="168.119" cy="166.864" r="2.12518" fill="black"/>
<path d="M144.742 172.177C150.341 175.385 164.982 179.875 178.745 172.177" stroke="black" stroke-width="3" stroke-linecap="round"/>
</svg>
