<svg width="75" height="91" viewBox="0 0 75 91" fill="none" xmlns="http://www.w3.org/2000/svg">
<mask id="path-1-inside-1" fill="white">
<path fill-rule="evenodd" clip-rule="evenodd" d="M56.438 69.9598C67.3628 63.4448 74.6806 51.51 74.6806 37.8661C74.6806 17.2436 57.9628 0.525757 37.3403 0.525757C16.7178 0.525757 0 17.2436 0 37.8661C0 51.2713 7.06392 63.0266 17.6725 69.6128V81.7623C17.6725 86.3275 21.3734 90.0284 25.9386 90.0284C30.5039 90.0284 34.2048 86.3275 34.2048 81.7623V75.0766C35.2386 75.1625 36.2843 75.2064 37.3403 75.2064C38.2026 75.2064 39.058 75.1772 39.9056 75.1196V81.7623C39.9056 86.3275 43.6065 90.0284 48.1718 90.0284C52.7371 90.0284 56.438 86.3275 56.438 81.7623V69.9598Z"/>
</mask>
<path fill-rule="evenodd" clip-rule="evenodd" d="M56.438 69.9598C67.3628 63.4448 74.6806 51.51 74.6806 37.8661C74.6806 17.2436 57.9628 0.525757 37.3403 0.525757C16.7178 0.525757 0 17.2436 0 37.8661C0 51.2713 7.06392 63.0266 17.6725 69.6128V81.7623C17.6725 86.3275 21.3734 90.0284 25.9386 90.0284C30.5039 90.0284 34.2048 86.3275 34.2048 81.7623V75.0766C35.2386 75.1625 36.2843 75.2064 37.3403 75.2064C38.2026 75.2064 39.058 75.1772 39.9056 75.1196V81.7623C39.9056 86.3275 43.6065 90.0284 48.1718 90.0284C52.7371 90.0284 56.438 86.3275 56.438 81.7623V69.9598Z" fill="#E0B8FF"/>
<path d="M56.438 69.9598L55.4136 68.242L54.438 68.8239V69.9598H56.438ZM17.6725 69.6128H19.6725V68.5004L18.7274 67.9137L17.6725 69.6128ZM34.2048 75.0766L34.3705 73.0835L32.2048 72.9034V75.0766H34.2048ZM39.9056 75.1196H41.9056V72.9793L39.7702 73.1242L39.9056 75.1196ZM72.6806 37.8661C72.6806 50.7768 65.7585 62.0729 55.4136 68.242L57.4624 71.6775C68.9671 64.8168 76.6806 52.2432 76.6806 37.8661H72.6806ZM37.3403 2.52576C56.8582 2.52576 72.6806 18.3482 72.6806 37.8661H76.6806C76.6806 16.139 59.0674 -1.47424 37.3403 -1.47424V2.52576ZM2 37.8661C2 18.3482 17.8224 2.52576 37.3403 2.52576V-1.47424C15.6133 -1.47424 -2 16.139 -2 37.8661H2ZM18.7274 67.9137C8.68183 61.677 2 50.551 2 37.8661H-2C-2 51.9915 5.446 64.3763 16.6175 71.312L18.7274 67.9137ZM15.6725 69.6128V81.7623H19.6725V69.6128H15.6725ZM15.6725 81.7623C15.6725 87.4321 20.2688 92.0284 25.9386 92.0284V88.0284C22.4779 88.0284 19.6725 85.223 19.6725 81.7623H15.6725ZM25.9386 92.0284C31.6085 92.0284 36.2048 87.4321 36.2048 81.7623H32.2048C32.2048 85.223 29.3993 88.0284 25.9386 88.0284V92.0284ZM36.2048 81.7623V75.0766H32.2048V81.7623H36.2048ZM37.3403 73.2064C36.3397 73.2064 35.3493 73.1648 34.3705 73.0835L34.0391 77.0697C35.1279 77.1602 36.229 77.2064 37.3403 77.2064V73.2064ZM39.7702 73.1242C38.9676 73.1787 38.1574 73.2064 37.3403 73.2064V77.2064C38.2478 77.2064 39.1483 77.1756 40.041 77.1151L39.7702 73.1242ZM37.9056 75.1196V81.7623H41.9056V75.1196H37.9056ZM37.9056 81.7623C37.9056 87.4321 42.502 92.0284 48.1718 92.0284V88.0284C44.7111 88.0284 41.9056 85.223 41.9056 81.7623H37.9056ZM48.1718 92.0284C53.8417 92.0284 58.438 87.4321 58.438 81.7623H54.438C54.438 85.223 51.6325 88.0284 48.1718 88.0284V92.0284ZM58.438 81.7623V69.9598H54.438V81.7623H58.438Z" fill="black" mask="url(#path-1-inside-1)"/>
<circle cx="33.5822" cy="20.012" r="1.24367" fill="black"/>
<circle cx="41.0442" cy="20.012" r="1.24367" fill="black"/>
<path d="M27.3639 23.1211C30.6409 24.9981 39.2084 27.6259 47.2627 23.1211" stroke="black" stroke-width="2" stroke-linecap="round"/>
</svg>
