<svg width="424" height="290" viewBox="0 0 424 290" fill="none" xmlns="http://www.w3.org/2000/svg">
<mask id="mask0" mask-type="alpha" maskUnits="userSpaceOnUse" x="0" y="0" width="424" height="290">
<rect width="424" height="290" fill="#C4C4C4"/>
</mask>
<g mask="url(#mask0)">
<rect width="424" height="290" fill="#CCEFD0"/>
<rect x="69.9325" y="11.7239" width="36.2987" height="162.139" rx="18.1493" transform="rotate(-3.47041 69.9325 11.7239)" fill="#C8DBFF" stroke="black" stroke-width="3"/>
<rect x="172.415" y="68.9327" width="36.2987" height="162.139" rx="18.1493" transform="rotate(86.5296 172.415 68.9327)" fill="#C8DBFF" stroke="black" stroke-width="3"/>
<rect x="135.28" y="14.7915" width="36.2987" height="172.111" rx="18.1493" transform="rotate(41.5296 135.28 14.7915)" fill="#C8DBFF" stroke="black" stroke-width="3"/>
<rect x="15.7385" y="47.985" width="36.2987" height="172.111" rx="18.1493" transform="rotate(-48.4704 15.7385 47.985)" fill="#C8DBFF" stroke="black" stroke-width="3"/>
<circle cx="91.7849" cy="91.6172" r="52.7601" transform="rotate(-3.47041 91.7849 91.6172)" fill="#FFF740" stroke="black" stroke-width="3"/>
<circle cx="87.3611" cy="93.7991" r="1.91009" transform="rotate(-3.47041 87.3611 93.7991)" fill="black"/>
<circle cx="98.8008" cy="93.1054" r="1.91009" transform="rotate(-3.47041 98.8008 93.1054)" fill="black"/>
<path d="M78.1174 99.1437C83.3156 101.717 96.6942 104.949 108.623 97.2937" stroke="black" stroke-width="3" stroke-linecap="round"/>
<rect x="336.636" y="107.584" width="36.2987" height="162.139" rx="18.1493" transform="rotate(13.0947 336.636 107.584)" fill="#FF85DD" stroke="black" stroke-width="3"/>
<rect x="418.555" y="191.637" width="36.2987" height="162.139" rx="18.1493" transform="rotate(103.095 418.555 191.637)" fill="#FF85DD" stroke="black" stroke-width="3"/>
<rect x="398.398" y="129.155" width="36.2987" height="172.111" rx="18.1493" transform="rotate(58.0947 398.398 129.155)" fill="#FF85DD" stroke="black" stroke-width="3"/>
<rect x="274.354" y="126.889" width="36.2987" height="172.111" rx="18.1493" transform="rotate(-31.9053 274.354 126.889)" fill="#FF85DD" stroke="black" stroke-width="3"/>
<circle cx="334.804" cy="190.391" r="52.7601" transform="rotate(13.0947 334.804 190.391)" fill="#FFF740" stroke="black" stroke-width="3"/>
<circle cx="329.941" cy="191.222" r="1.91009" transform="rotate(13.0947 329.941 191.222)" fill="black"/>
<circle cx="341.104" cy="193.818" r="1.91009" transform="rotate(13.0947 341.104 193.818)" fill="black"/>
<path d="M319.557 193.709C323.806 197.657 335.708 204.569 349.324 200.633" stroke="black" stroke-width="3" stroke-linecap="round"/>
<rect x="167.143" y="164.915" width="36.2987" height="162.139" rx="18.1493" transform="rotate(-20.7291 167.143 164.915)" fill="white" stroke="black" stroke-width="3"/>
<rect x="281.985" y="189.143" width="36.2987" height="162.139" rx="18.1493" transform="rotate(69.2709 281.985 189.143)" fill="white" stroke="black" stroke-width="3"/>
<rect x="230.459" y="148.457" width="36.2987" height="172.111" rx="18.1493" transform="rotate(24.2709 230.459 148.457)" fill="white" stroke="black" stroke-width="3"/>
<rect x="126.147" y="215.623" width="36.2987" height="172.111" rx="18.1493" transform="rotate(-65.7291 126.147 215.623)" fill="white" stroke="black" stroke-width="3"/>
<circle cx="211.715" cy="234.728" r="52.7601" transform="rotate(-20.7291 211.715 234.728)" fill="#FFF740" stroke="black" stroke-width="3"/>
<circle cx="208.137" cy="238.124" r="1.91009" transform="rotate(-20.7291 208.137 238.124)" fill="black"/>
<circle cx="218.856" cy="234.068" r="1.91009" transform="rotate(-20.7291 218.856 234.068)" fill="black"/>
<path d="M200.895 245.971C206.623 246.886 220.358 246.003 229.478 235.154" stroke="black" stroke-width="3" stroke-linecap="round"/>
</g>
</svg>
