<svg width="126" height="126" viewBox="0 0 126 126" fill="none" xmlns="http://www.w3.org/2000/svg">
<path d="M60.941 34.4548C62.366 30.8514 67.5695 31.1766 68.5346 34.9294L71.6288 46.9601C72.2763 49.4775 74.4711 51.2917 77.0654 51.4539L89.4635 52.2288C93.3308 52.4705 94.6295 57.5199 91.3586 59.5975L80.8729 66.2579C78.6788 67.6516 77.6316 70.2997 78.2791 72.8171L81.3733 84.8478C82.3385 88.6005 77.9376 91.3959 74.9509 88.9272L65.3762 81.0129C63.3727 79.3568 60.5306 79.1792 58.3365 80.5729L47.8508 87.2334C44.58 89.311 40.5614 85.9893 41.9864 82.3859L46.5546 70.8342C47.5105 68.417 46.8012 65.6591 44.7977 64.0031L35.223 56.0888C32.2363 53.62 34.1536 48.7717 38.0209 49.0135L50.419 49.7884C53.0133 49.9505 55.4169 48.4237 56.3728 46.0065L60.941 34.4548Z" fill="#FFF6C8" stroke="black" stroke-width="2"/>
<circle cx="61.0165" cy="56.6447" r="1.04284" transform="rotate(14.9632 61.0165 56.6447)" fill="black"/>
<circle cx="67.0612" cy="58.2601" r="1.04284" transform="rotate(14.9632 67.0612 58.2601)" fill="black"/>
<path d="M55.3062 57.817C57.5544 60.047 63.9259 64.0307 71.4259 62.1252" stroke="black" stroke-width="2" stroke-linecap="round"/>
</svg>
