<svg width="424" height="290" viewBox="0 0 424 290" fill="none" xmlns="http://www.w3.org/2000/svg">
<mask id="mask0" mask-type="alpha" maskUnits="userSpaceOnUse" x="0" y="0" width="424" height="290">
<rect width="424" height="290" fill="#C4C4C4"/>
</mask>
<g mask="url(#mask0)">
<rect width="424" height="290" fill="#92AFE7"/>
<mask id="path-3-inside-1" fill="white">
<path fill-rule="evenodd" clip-rule="evenodd" d="M265.897 185.668C277.206 172.967 284.077 156.228 284.077 137.884C284.077 98.1836 251.894 66 212.193 66C172.493 66 140.309 98.1836 140.309 137.884C140.309 156.228 147.18 172.967 158.489 185.668C134.018 202.68 118 231 118 263.062C118 315.083 160.172 357.255 212.193 357.255C264.214 357.255 306.386 315.083 306.386 263.062C306.386 231 290.368 202.68 265.897 185.668Z"/>
</mask>
<path fill-rule="evenodd" clip-rule="evenodd" d="M265.897 185.668C277.206 172.967 284.077 156.228 284.077 137.884C284.077 98.1836 251.894 66 212.193 66C172.493 66 140.309 98.1836 140.309 137.884C140.309 156.228 147.18 172.967 158.489 185.668C134.018 202.68 118 231 118 263.062C118 315.083 160.172 357.255 212.193 357.255C264.214 357.255 306.386 315.083 306.386 263.062C306.386 231 290.368 202.68 265.897 185.668Z" fill="white"/>
<path d="M265.897 185.668L263.657 183.673L261.407 186.2L264.185 188.131L265.897 185.668ZM158.489 185.668L160.201 188.131L162.979 186.2L160.729 183.673L158.489 185.668ZM281.077 137.884C281.077 155.465 274.495 171.5 263.657 183.673L268.138 187.663C279.917 174.434 287.077 156.992 287.077 137.884H281.077ZM212.193 69C250.237 69 281.077 99.8405 281.077 137.884H287.077C287.077 96.5268 253.55 63 212.193 63V69ZM143.309 137.884C143.309 99.8405 174.149 69 212.193 69V63C170.836 63 137.309 96.5268 137.309 137.884H143.309ZM160.729 183.673C149.891 171.5 143.309 155.465 143.309 137.884H137.309C137.309 156.992 144.469 174.434 156.248 187.663L160.729 183.673ZM121 263.062C121 232.024 136.503 204.607 160.201 188.131L156.776 183.205C131.534 200.754 115 229.977 115 263.062H121ZM212.193 354.255C161.829 354.255 121 313.426 121 263.062H115C115 316.74 158.515 360.255 212.193 360.255V354.255ZM303.386 263.062C303.386 313.426 262.558 354.255 212.193 354.255V360.255C265.871 360.255 309.386 316.74 309.386 263.062H303.386ZM264.185 188.131C287.883 204.607 303.386 232.024 303.386 263.062H309.386C309.386 229.977 292.852 200.754 267.61 183.205L264.185 188.131Z" fill="black" mask="url(#path-3-inside-1)"/>
<circle cx="203.697" cy="142.134" r="3.01042" fill="black"/>
<circle cx="221.759" cy="142.134" r="3.01042" fill="black"/>
<path d="M188.645 149.66C196.577 154.204 217.315 160.564 236.812 149.66" stroke="black" stroke-width="3" stroke-linecap="round"/>
<circle cx="69" cy="153.255" r="7.75" fill="white" stroke="black" stroke-width="2.5"/>
<circle cx="103.5" cy="123.755" r="8.25" fill="white" stroke="black" stroke-width="2.5"/>
<circle cx="60.5" cy="98.7548" r="8.25" fill="white" stroke="black" stroke-width="2.5"/>
<path d="M324.75 88.7548C324.75 93.3757 321.217 97.0048 317 97.0048C312.783 97.0048 309.25 93.3757 309.25 88.7548C309.25 84.1339 312.783 80.5048 317 80.5048C321.217 80.5048 324.75 84.1339 324.75 88.7548Z" fill="white" stroke="black" stroke-width="2.5"/>
<circle cx="317" cy="127.255" r="7.75" fill="white" stroke="black" stroke-width="2.5"/>
<circle cx="362.5" cy="123.755" r="8.25" fill="white" stroke="black" stroke-width="2.5"/>
<path d="M343.75 163.255C343.75 167.472 340.121 171.005 335.5 171.005C330.879 171.005 327.25 167.472 327.25 163.255C327.25 159.037 330.879 155.505 335.5 155.505C340.121 155.505 343.75 159.037 343.75 163.255Z" fill="white" stroke="black" stroke-width="2.5"/>
</g>
</svg>
