<svg width="118" height="170" viewBox="0 -31 118 170" fill="none" xmlns="http://www.w3.org/2000/svg">
<mask id="path-1-inside-1_40_2412" fill="white">
<path fill-rule="evenodd" clip-rule="evenodd" d="M66.8886 4.48066C62.9344 -1.49355 54.1651 -1.49355 50.2108 4.48066L1.67785 77.8065C-2.72213 84.4542 2.04482 93.3259 10.0167 93.3259H43.6219V132.759C43.6219 135.908 46.1743 138.46 49.3228 138.46C52.4712 138.46 55.0236 135.908 55.0236 132.759V93.3259H61.2944V132.474C61.2944 135.78 63.9744 138.46 67.2803 138.46C70.5862 138.46 73.2662 135.78 73.2662 132.474V93.3259H107.083C115.055 93.3259 119.822 84.4542 115.422 77.8065L66.8886 4.48066Z"/>
</mask>
<path fill-rule="evenodd" clip-rule="evenodd" d="M66.8886 4.48066C62.9344 -1.49355 54.1651 -1.49355 50.2108 4.48066L1.67785 77.8065C-2.72213 84.4542 2.04482 93.3259 10.0167 93.3259H43.6219V132.759C43.6219 135.908 46.1743 138.46 49.3228 138.46C52.4712 138.46 55.0236 135.908 55.0236 132.759V93.3259H61.2944V132.474C61.2944 135.78 63.9744 138.46 67.2803 138.46C70.5862 138.46 73.2662 135.78 73.2662 132.474V93.3259H107.083C115.055 93.3259 119.822 84.4542 115.422 77.8065L66.8886 4.48066Z" fill="#FFCB8E"/>
<path d="M50.2108 4.48066L48.5431 3.37679V3.37679L50.2108 4.48066ZM66.8886 4.48066L65.2208 5.58452V5.58452L66.8886 4.48066ZM1.67785 77.8065L3.34562 78.9104H3.34562L1.67785 77.8065ZM43.6219 93.3259H45.6219V91.3259H43.6219V93.3259ZM55.0236 93.3259V91.3259H53.0236V93.3259H55.0236ZM61.2944 93.3259H63.2944V91.3259H61.2944V93.3259ZM73.2662 93.3259V91.3259H71.2662V93.3259H73.2662ZM115.422 77.8065L117.089 76.7026L115.422 77.8065ZM51.8786 5.58453C55.042 0.805158 62.0575 0.805159 65.2208 5.58452L68.5564 3.37679C63.8113 -3.79226 53.2881 -3.79226 48.5431 3.37679L51.8786 5.58453ZM3.34562 78.9104L51.8786 5.58453L48.5431 3.37679L0.010071 76.7027L3.34562 78.9104ZM10.0167 91.3259C3.6392 91.3259 -0.174356 84.2285 3.34562 78.9104L0.0100713 76.7027C-5.26991 84.6799 0.450442 95.3259 10.0167 95.3259V91.3259ZM43.6219 91.3259H10.0167V95.3259H43.6219V91.3259ZM41.6219 93.3259V132.759H45.6219V93.3259H41.6219ZM41.6219 132.759C41.6219 137.012 45.0697 140.46 49.3228 140.46V136.46C47.2789 136.46 45.6219 134.803 45.6219 132.759H41.6219ZM49.3228 140.46C53.5758 140.46 57.0236 137.012 57.0236 132.759H53.0236C53.0236 134.803 51.3667 136.46 49.3228 136.46V140.46ZM57.0236 132.759V93.3259H53.0236V132.759H57.0236ZM61.2944 91.3259H55.0236V95.3259H61.2944V91.3259ZM59.2944 93.3259V132.474H63.2944V93.3259H59.2944ZM59.2944 132.474C59.2944 136.885 62.8698 140.46 67.2803 140.46V136.46C65.079 136.46 63.2944 134.676 63.2944 132.474H59.2944ZM67.2803 140.46C71.6908 140.46 75.2662 136.885 75.2662 132.474H71.2662C71.2662 134.676 69.4816 136.46 67.2803 136.46V140.46ZM75.2662 132.474V93.3259H71.2662V132.474H75.2662ZM107.083 91.3259H73.2662V95.3259H107.083V91.3259ZM113.754 78.9104C117.274 84.2285 113.46 91.3259 107.083 91.3259V95.3259C116.649 95.3259 122.369 84.6799 117.089 76.7026L113.754 78.9104ZM65.2208 5.58452L113.754 78.9104L117.089 76.7026L68.5564 3.37679L65.2208 5.58452Z" fill="black" mask="url(#path-1-inside-1_40_2412)"/>
<circle cx="54.6181" cy="67.02" r="1.24367" fill="black"/>
<circle cx="62.0801" cy="67.02" r="1.24367" fill="black"/>
<path d="M48.3998 70.1294C51.6768 72.0064 60.2443 74.6342 68.2986 70.1294" stroke="black" stroke-width="2" stroke-linecap="round"/>
</svg>
