<svg width="120" height="141" viewBox="0 0 120 141" fill="none" xmlns="http://www.w3.org/2000/svg">
<path fill-rule="evenodd" clip-rule="evenodd" d="M67.8886 5.48066C63.9344 -0.493553 55.1651 -0.493551 51.2108 5.48066L2.67785 78.8065C-1.72213 85.4542 3.04482 94.3259 11.0167 94.3259H44.6219V133.759C44.6219 136.908 47.1743 139.46 50.3228 139.46C53.4712 139.46 56.0236 136.908 56.0236 133.759V94.3259H62.2944V133.474C62.2944 136.78 64.9744 139.46 68.2803 139.46C71.5862 139.46 74.2662 136.78 74.2662 133.474V94.3259H108.083C116.055 94.3259 120.822 85.4542 116.422 78.8065L67.8886 5.48066Z" fill="#FFCB8E"/>
<path d="M51.2108 5.48066L50.377 4.92872L51.2108 5.48066ZM67.8886 5.48066L67.0547 6.03259V6.03259L67.8886 5.48066ZM2.67785 78.8065L3.51173 79.3585L2.67785 78.8065ZM44.6219 94.3259H45.6219V93.3259H44.6219V94.3259ZM56.0236 94.3259V93.3259H55.0236V94.3259H56.0236ZM62.2944 94.3259H63.2944V93.3259H62.2944V94.3259ZM74.2662 94.3259V93.3259H73.2662V94.3259H74.2662ZM116.422 78.8065L117.255 78.2546L116.422 78.8065ZM52.0447 6.03259C55.6035 0.655803 63.4959 0.655803 67.0547 6.03259L68.7225 4.92872C64.3728 -1.64291 54.7266 -1.64291 50.377 4.92872L52.0447 6.03259ZM3.51173 79.3585L52.0447 6.03259L50.377 4.92872L1.84396 78.2546L3.51173 79.3585ZM11.0167 93.3259C3.84201 93.3259 -0.448244 85.3414 3.51173 79.3585L1.84396 78.2546C-2.99602 85.567 2.24763 95.3259 11.0167 95.3259V93.3259ZM44.6219 93.3259H11.0167V95.3259H44.6219V93.3259ZM43.6219 94.3259V133.759H45.6219V94.3259H43.6219ZM43.6219 133.759C43.6219 137.46 46.622 140.46 50.3228 140.46V138.46C47.7266 138.46 45.6219 136.355 45.6219 133.759H43.6219ZM50.3228 140.46C54.0235 140.46 57.0236 137.46 57.0236 133.759H55.0236C55.0236 136.355 52.9189 138.46 50.3228 138.46V140.46ZM57.0236 133.759V94.3259H55.0236V133.759H57.0236ZM62.2944 93.3259H56.0236V95.3259H62.2944V93.3259ZM61.2944 94.3259V133.474H63.2944V94.3259H61.2944ZM61.2944 133.474C61.2944 137.332 64.4221 140.46 68.2803 140.46V138.46C65.5267 138.46 63.2944 136.228 63.2944 133.474H61.2944ZM68.2803 140.46C72.1385 140.46 75.2662 137.332 75.2662 133.474H73.2662C73.2662 136.228 71.0339 138.46 68.2803 138.46V140.46ZM75.2662 133.474V94.3259H73.2662V133.474H75.2662ZM108.083 93.3259H74.2662V95.3259H108.083V93.3259ZM115.588 79.3584C119.548 85.3414 115.257 93.3259 108.083 93.3259V95.3259C116.852 95.3259 122.095 85.567 117.255 78.2546L115.588 79.3584ZM67.0547 6.03259L115.588 79.3584L117.255 78.2546L68.7225 4.92872L67.0547 6.03259Z" fill="black"/>
<circle cx="55.6181" cy="68.02" r="1.24367" fill="black"/>
<circle cx="63.0801" cy="68.02" r="1.24367" fill="black"/>
<path d="M49.3998 71.1294C52.6768 73.0064 61.2443 75.6342 69.2986 71.1294" stroke="black" stroke-width="2" stroke-linecap="round"/>
</svg>
