<svg width="118" height="170" viewBox="-24.5 0 118 170" fill="none" xmlns="http://www.w3.org/2000/svg">
<mask id="path-1-inside-1_40_2394" fill="white">
<path fill-rule="evenodd" clip-rule="evenodd" d="M0 34.7462C0 15.9638 15.2261 0.737793 34.0084 0.737793C52.7907 0.737793 68.0168 15.9639 68.0168 34.7462V114.705C68.0168 129.187 58.9647 141.555 46.2099 146.459V164.549C46.2099 167.273 44.0016 169.482 41.2774 169.482C38.5533 169.482 36.3449 167.273 36.3449 164.549V148.634C35.5728 148.687 34.7937 148.713 34.0084 148.713C33.0467 148.713 32.0942 148.673 31.1527 148.595V164.549C31.1527 167.273 28.9443 169.482 26.2202 169.482C23.496 169.482 21.2877 167.273 21.2877 164.549V146.254C8.80714 141.217 0 128.99 0 114.705V34.7462Z"/>
</mask>
<path fill-rule="evenodd" clip-rule="evenodd" d="M0 34.7462C0 15.9638 15.2261 0.737793 34.0084 0.737793C52.7907 0.737793 68.0168 15.9639 68.0168 34.7462V114.705C68.0168 129.187 58.9647 141.555 46.2099 146.459V164.549C46.2099 167.273 44.0016 169.482 41.2774 169.482C38.5533 169.482 36.3449 167.273 36.3449 164.549V148.634C35.5728 148.687 34.7937 148.713 34.0084 148.713C33.0467 148.713 32.0942 148.673 31.1527 148.595V164.549C31.1527 167.273 28.9443 169.482 26.2202 169.482C23.496 169.482 21.2877 167.273 21.2877 164.549V146.254C8.80714 141.217 0 128.99 0 114.705V34.7462Z" fill="#F885D8"/>
<path d="M46.2099 146.459L45.4922 144.592L44.2099 145.085V146.459H46.2099ZM36.3449 148.634H38.3449V146.494L36.2095 146.639L36.3449 148.634ZM31.1527 148.595L31.3184 146.602L29.1527 146.422V148.595H31.1527ZM21.2877 146.254H23.2877V144.905L22.0362 144.4L21.2877 146.254ZM34.0084 -1.26221C14.1215 -1.26221 -2 14.8593 -2 34.7462H2C2 17.0684 16.3306 2.73779 34.0084 2.73779V-1.26221ZM70.0168 34.7462C70.0168 14.8593 53.8953 -1.26221 34.0084 -1.26221V2.73779C51.6862 2.73779 66.0168 17.0684 66.0168 34.7462H70.0168ZM70.0168 114.705V34.7462H66.0168V114.705H70.0168ZM46.9277 148.326C60.4292 143.134 70.0168 130.042 70.0168 114.705H66.0168C66.0168 128.332 57.5002 139.975 45.4922 144.592L46.9277 148.326ZM44.2099 146.459V164.549H48.2099V146.459H44.2099ZM44.2099 164.549C44.2099 166.169 42.897 167.482 41.2774 167.482V171.482C45.1061 171.482 48.2099 168.378 48.2099 164.549H44.2099ZM41.2774 167.482C39.6578 167.482 38.3449 166.169 38.3449 164.549H34.3449C34.3449 168.378 37.4487 171.482 41.2774 171.482V167.482ZM38.3449 164.549V148.634H34.3449V164.549H38.3449ZM34.0084 150.713C34.839 150.713 35.6632 150.685 36.4803 150.63L36.2095 146.639C35.4825 146.688 34.7485 146.713 34.0084 146.713V150.713ZM30.987 150.588C31.9836 150.671 32.9913 150.713 34.0084 150.713V146.713C33.102 146.713 32.2049 146.676 31.3184 146.602L30.987 150.588ZM33.1527 164.549V148.595H29.1527V164.549H33.1527ZM26.2202 171.482C30.0489 171.482 33.1527 168.378 33.1527 164.549H29.1527C29.1527 166.169 27.8398 167.482 26.2202 167.482V171.482ZM19.2877 164.549C19.2877 168.378 22.3915 171.482 26.2202 171.482V167.482C24.6006 167.482 23.2877 166.169 23.2877 164.549H19.2877ZM19.2877 146.254V164.549H23.2877V146.254H19.2877ZM-2 114.705C-2 129.833 7.32833 142.777 20.5392 148.109L22.0362 144.4C10.286 139.657 2 128.146 2 114.705H-2ZM-2 34.7462V114.705H2V34.7462H-2Z" fill="black" mask="url(#path-1-inside-1_40_2394)"/>
<circle cx="30.5354" cy="81.2227" r="1.24367" fill="black"/>
<circle cx="37.9976" cy="81.2227" r="1.24367" fill="black"/>
<path d="M24.3171 84.332C27.5941 86.209 36.1617 88.8369 44.2159 84.332" stroke="black" stroke-width="2" stroke-linecap="round"/>
</svg>
