<svg width="73" height="174" viewBox="0 0 73 174" fill="none" xmlns="http://www.w3.org/2000/svg">
<mask id="path-1-outside-1_720_58" maskUnits="userSpaceOnUse" x="0" y="0.737793" width="73" height="173" fill="black">
<rect fill="white" y="0.737793" width="73" height="173"/>
<path fill-rule="evenodd" clip-rule="evenodd" d="M2 36.7462C2 17.9638 17.2261 2.73779 36.0084 2.73779C54.7907 2.73779 70.0168 17.9639 70.0168 36.7462V116.705C70.0168 131.187 60.9647 143.555 48.2099 148.459V166.549C48.2099 169.273 46.0016 171.482 43.2774 171.482C40.5533 171.482 38.3449 169.273 38.3449 166.549V150.634C37.5728 150.687 36.7937 150.713 36.0084 150.713C35.0467 150.713 34.0942 150.673 33.1527 150.595V166.549C33.1527 169.273 30.9443 171.482 28.2202 171.482C25.496 171.482 23.2877 169.273 23.2877 166.549V148.254C10.8071 143.217 2 130.99 2 116.705V36.7462Z"/>
</mask>
<path fill-rule="evenodd" clip-rule="evenodd" d="M2 36.7462C2 17.9638 17.2261 2.73779 36.0084 2.73779C54.7907 2.73779 70.0168 17.9639 70.0168 36.7462V116.705C70.0168 131.187 60.9647 143.555 48.2099 148.459V166.549C48.2099 169.273 46.0016 171.482 43.2774 171.482C40.5533 171.482 38.3449 169.273 38.3449 166.549V150.634C37.5728 150.687 36.7937 150.713 36.0084 150.713C35.0467 150.713 34.0942 150.673 33.1527 150.595V166.549C33.1527 169.273 30.9443 171.482 28.2202 171.482C25.496 171.482 23.2877 169.273 23.2877 166.549V148.254C10.8071 143.217 2 130.99 2 116.705V36.7462Z" fill="#F885D8"/>
<path d="M48.2099 148.459L47.4922 146.592L46.2099 147.085V148.459H48.2099ZM38.3449 150.634H40.3449V148.494L38.2095 148.639L38.3449 150.634ZM33.1527 150.595L33.3184 148.602L31.1527 148.422V150.595H33.1527ZM23.2877 148.254H25.2877V146.905L24.0362 146.4L23.2877 148.254ZM36.0084 0.737793C16.1215 0.737793 0 16.8593 0 36.7462H4C4 19.0684 18.3306 4.73779 36.0084 4.73779V0.737793ZM72.0168 36.7462C72.0168 16.8593 55.8953 0.737793 36.0084 0.737793V4.73779C53.6862 4.73779 68.0168 19.0684 68.0168 36.7462H72.0168ZM72.0168 116.705V36.7462H68.0168V116.705H72.0168ZM48.9277 150.326C62.4292 145.134 72.0168 132.042 72.0168 116.705H68.0168C68.0168 130.332 59.5002 141.975 47.4922 146.592L48.9277 150.326ZM46.2099 148.459V166.549H50.2099V148.459H46.2099ZM46.2099 166.549C46.2099 168.169 44.897 169.482 43.2774 169.482V173.482C47.1061 173.482 50.2099 170.378 50.2099 166.549H46.2099ZM43.2774 169.482C41.6578 169.482 40.3449 168.169 40.3449 166.549H36.3449C36.3449 170.378 39.4487 173.482 43.2774 173.482V169.482ZM40.3449 166.549V150.634H36.3449V166.549H40.3449ZM36.0084 152.713C36.839 152.713 37.6632 152.685 38.4803 152.63L38.2095 148.639C37.4825 148.688 36.7485 148.713 36.0084 148.713V152.713ZM32.987 152.588C33.9836 152.671 34.9913 152.713 36.0084 152.713V148.713C35.102 148.713 34.2049 148.676 33.3184 148.602L32.987 152.588ZM35.1527 166.549V150.595H31.1527V166.549H35.1527ZM28.2202 173.482C32.0489 173.482 35.1527 170.378 35.1527 166.549H31.1527C31.1527 168.169 29.8398 169.482 28.2202 169.482V173.482ZM21.2877 166.549C21.2877 170.378 24.3915 173.482 28.2202 173.482V169.482C26.6006 169.482 25.2877 168.169 25.2877 166.549H21.2877ZM21.2877 148.254V166.549H25.2877V148.254H21.2877ZM0 116.705C0 131.833 9.32833 144.777 22.5392 150.109L24.0362 146.4C12.286 141.657 4 130.146 4 116.705H0ZM0 36.7462V116.705H4V36.7462H0Z" fill="black" mask="url(#path-1-outside-1_720_58)"/>
<circle cx="32.5354" cy="83.2227" r="1.24367" fill="black"/>
<circle cx="39.9976" cy="83.2227" r="1.24367" fill="black"/>
<path d="M26.3171 86.332C29.5941 88.209 38.1617 90.8369 46.2159 86.332" stroke="black" stroke-width="2" stroke-linecap="round"/>
</svg>
