<svg width="118" height="170" viewBox="-24.5 -80 118 170" fill="none" xmlns="http://www.w3.org/2000/svg">
<mask id="path-1-inside-1_40_2403" fill="white">
<path fill-rule="evenodd" clip-rule="evenodd" d="M56.438 69.434C67.3628 62.9191 74.6806 50.9843 74.6806 37.3403C74.6806 16.7178 57.9628 0 37.3403 0C16.7178 0 0 16.7178 0 37.3403C0 50.7455 7.06392 62.5009 17.6725 69.0871V81.2365C17.6725 85.8018 21.3734 89.5027 25.9386 89.5027C30.5039 89.5027 34.2048 85.8018 34.2048 81.2365V74.5508C35.2386 74.6368 36.2843 74.6806 37.3403 74.6806C38.2026 74.6806 39.058 74.6514 39.9056 74.5939V81.2365C39.9056 85.8018 43.6065 89.5027 48.1718 89.5027C52.7371 89.5027 56.438 85.8018 56.438 81.2365V69.434Z"/>
</mask>
<path fill-rule="evenodd" clip-rule="evenodd" d="M56.438 69.434C67.3628 62.9191 74.6806 50.9843 74.6806 37.3403C74.6806 16.7178 57.9628 0 37.3403 0C16.7178 0 0 16.7178 0 37.3403C0 50.7455 7.06392 62.5009 17.6725 69.0871V81.2365C17.6725 85.8018 21.3734 89.5027 25.9386 89.5027C30.5039 89.5027 34.2048 85.8018 34.2048 81.2365V74.5508C35.2386 74.6368 36.2843 74.6806 37.3403 74.6806C38.2026 74.6806 39.058 74.6514 39.9056 74.5939V81.2365C39.9056 85.8018 43.6065 89.5027 48.1718 89.5027C52.7371 89.5027 56.438 85.8018 56.438 81.2365V69.434Z" fill="#E0B8FF"/>
<path d="M56.438 69.434L55.4136 67.7163L54.438 68.2981V69.434H56.438ZM17.6725 69.0871H19.6725V67.9746L18.7274 67.3879L17.6725 69.0871ZM34.2048 74.5508L34.3705 72.5577L32.2048 72.3777V74.5508H34.2048ZM39.9056 74.5939H41.9056V72.4536L39.7702 72.5985L39.9056 74.5939ZM72.6806 37.3403C72.6806 50.2511 65.7585 61.5472 55.4136 67.7163L57.4624 71.1518C68.9671 64.291 76.6806 51.7175 76.6806 37.3403H72.6806ZM37.3403 2C56.8582 2 72.6806 17.8224 72.6806 37.3403H76.6806C76.6806 15.6133 59.0674 -2 37.3403 -2V2ZM2 37.3403C2 17.8224 17.8224 2 37.3403 2V-2C15.6133 -2 -2 15.6133 -2 37.3403H2ZM18.7274 67.3879C8.68183 61.1512 2 50.0253 2 37.3403H-2C-2 51.4658 5.446 63.8505 16.6175 70.7862L18.7274 67.3879ZM15.6725 69.0871V81.2365H19.6725V69.0871H15.6725ZM15.6725 81.2365C15.6725 86.9063 20.2688 91.5027 25.9386 91.5027V87.5027C22.4779 87.5027 19.6725 84.6972 19.6725 81.2365H15.6725ZM25.9386 91.5027C31.6085 91.5027 36.2048 86.9064 36.2048 81.2365H32.2048C32.2048 84.6972 29.3993 87.5027 25.9386 87.5027V91.5027ZM36.2048 81.2365V74.5508H32.2048V81.2365H36.2048ZM37.3403 72.6806C36.3397 72.6806 35.3493 72.6391 34.3705 72.5577L34.0391 76.544C35.1279 76.6345 36.229 76.6806 37.3403 76.6806V72.6806ZM39.7702 72.5985C38.9676 72.6529 38.1574 72.6806 37.3403 72.6806V76.6806C38.2478 76.6806 39.1483 76.6499 40.041 76.5893L39.7702 72.5985ZM37.9056 74.5939V81.2365H41.9056V74.5939H37.9056ZM37.9056 81.2365C37.9056 86.9063 42.502 91.5027 48.1718 91.5027V87.5027C44.7111 87.5027 41.9056 84.6972 41.9056 81.2365H37.9056ZM48.1718 91.5027C53.8417 91.5027 58.438 86.9064 58.438 81.2365H54.438C54.438 84.6972 51.6325 87.5027 48.1718 87.5027V91.5027ZM58.438 81.2365V69.434H54.438V81.2365H58.438Z" fill="black" mask="url(#path-1-inside-1_40_2403)"/>
<circle cx="33.5822" cy="19.4864" r="1.24367" fill="black"/>
<circle cx="41.0442" cy="19.4864" r="1.24367" fill="black"/>
<path d="M27.3639 22.5952C30.6409 24.4722 39.2084 27.1 47.2627 22.5952" stroke="black" stroke-width="2" stroke-linecap="round"/>
</svg>
