<svg width="77" height="92" viewBox="0 0 77 92" fill="none" xmlns="http://www.w3.org/2000/svg">
<path fill-rule="evenodd" clip-rule="evenodd" d="M57.438 70.434C68.3628 63.9191 75.6806 51.9843 75.6806 38.3403C75.6806 17.7178 58.9628 1 38.3403 1C17.7178 1 1 17.7178 1 38.3403C1 51.7455 8.06392 63.5009 18.6725 70.0871V82.2365C18.6725 86.8018 22.3734 90.5027 26.9386 90.5027C31.5039 90.5027 35.2048 86.8018 35.2048 82.2365V75.5508C36.2386 75.6368 37.2843 75.6806 38.3403 75.6806C39.2026 75.6806 40.058 75.6514 40.9056 75.5939V82.2365C40.9056 86.8018 44.6065 90.5027 49.1718 90.5027C53.7371 90.5027 57.438 86.8018 57.438 82.2365V70.434Z" fill="#E0B8FF"/>
<path d="M57.438 70.434L56.9258 69.5752L56.438 69.8661V70.434H57.438ZM18.6725 70.0871H19.6725V69.5309L19.1999 69.2375L18.6725 70.0871ZM35.2048 75.5508L35.2877 74.5543L34.2048 74.4642V75.5508H35.2048ZM40.9056 75.5939H41.9056V74.5237L40.8379 74.5962L40.9056 75.5939ZM74.6806 38.3403C74.6806 51.6177 67.5607 63.2331 56.9258 69.5752L57.9502 71.2929C69.165 64.605 76.6806 52.3509 76.6806 38.3403H74.6806ZM38.3403 2C58.4105 2 74.6806 18.2701 74.6806 38.3403H76.6806C76.6806 17.1655 59.5151 0 38.3403 0V2ZM2 38.3403C2 18.2701 18.2701 2 38.3403 2V0C17.1655 0 0 17.1655 0 38.3403H2ZM19.1999 69.2375C8.87287 62.8261 2 51.3854 2 38.3403H0C0 52.1057 7.25496 64.1757 18.145 70.9367L19.1999 69.2375ZM17.6725 70.0871V82.2365H19.6725V70.0871H17.6725ZM17.6725 82.2365C17.6725 87.3541 21.8211 91.5027 26.9386 91.5027V89.5027C22.9256 89.5027 19.6725 86.2495 19.6725 82.2365H17.6725ZM26.9386 91.5027C32.0562 91.5027 36.2048 87.3541 36.2048 82.2365H34.2048C34.2048 86.2495 30.9516 89.5027 26.9386 89.5027V91.5027ZM36.2048 82.2365V75.5508H34.2048V82.2365H36.2048ZM38.3403 74.6806C37.312 74.6806 36.2939 74.6379 35.2877 74.5543L35.122 76.5474C36.1833 76.6356 37.2566 76.6806 38.3403 76.6806V74.6806ZM40.8379 74.5962C40.0128 74.6522 39.18 74.6806 38.3403 74.6806V76.6806C39.2252 76.6806 40.1032 76.6506 40.9733 76.5916L40.8379 74.5962ZM39.9056 75.5939V82.2365H41.9056V75.5939H39.9056ZM39.9056 82.2365C39.9056 87.3541 44.0542 91.5027 49.1718 91.5027V89.5027C45.1588 89.5027 41.9056 86.2495 41.9056 82.2365H39.9056ZM49.1718 91.5027C54.2894 91.5027 58.438 87.3541 58.438 82.2365H56.438C56.438 86.2495 53.1848 89.5027 49.1718 89.5027V91.5027ZM58.438 82.2365V70.434H56.438V82.2365H58.438Z" fill="black"/>
<circle cx="34.5822" cy="20.4864" r="1.24367" fill="black"/>
<circle cx="42.0442" cy="20.4864" r="1.24367" fill="black"/>
<path d="M28.3639 23.5952C31.6409 25.4722 40.2084 28.1 48.2627 23.5952" stroke="black" stroke-width="2" stroke-linecap="round"/>
</svg>
