<svg width="646" height="316" viewBox="0 0 646 316" fill="none" xmlns="http://www.w3.org/2000/svg">
<mask id="mask0" mask-type="alpha" maskUnits="userSpaceOnUse" x="0" y="0" width="646" height="316">
<rect width="646" height="316" fill="#C4C4C4"/>
</mask>
<g mask="url(#mask0)">
<rect width="646" height="316" fill="#97ECA0"/>
<mask id="path-3-inside-1" fill="white">
<path fill-rule="evenodd" clip-rule="evenodd" d="M417.481 166.04C413.527 160.066 404.758 160.066 400.804 166.04L301.635 315.869C297.235 322.516 302.002 331.388 309.974 331.388H383.142V422.049C383.142 426.744 386.948 430.549 391.642 430.549H394.642C399.337 430.549 403.142 426.744 403.142 422.049V331.388H414.142V422.049C414.142 426.744 417.948 430.549 422.642 430.549H426.642C431.337 430.549 435.142 426.744 435.142 422.049V331.388H508.311C516.283 331.388 521.05 322.516 516.65 315.869L417.481 166.04Z"/>
</mask>
<path fill-rule="evenodd" clip-rule="evenodd" d="M417.481 166.04C413.527 160.066 404.758 160.066 400.804 166.04L301.635 315.869C297.235 322.516 302.002 331.388 309.974 331.388H383.142V422.049C383.142 426.744 386.948 430.549 391.642 430.549H394.642C399.337 430.549 403.142 426.744 403.142 422.049V331.388H414.142V422.049C414.142 426.744 417.948 430.549 422.642 430.549H426.642C431.337 430.549 435.142 426.744 435.142 422.049V331.388H508.311C516.283 331.388 521.05 322.516 516.65 315.869L417.481 166.04Z" fill="#FFCB8E"/>
<path d="M400.804 166.04L398.302 164.384V164.384L400.804 166.04ZM417.481 166.04L419.983 164.384V164.384L417.481 166.04ZM301.635 315.869L304.137 317.525H304.137L301.635 315.869ZM383.142 331.388H386.142V328.388H383.142V331.388ZM403.142 331.388V328.388H400.142V331.388H403.142ZM414.142 331.388H417.142V328.388H414.142V331.388ZM435.142 331.388V328.388H432.142V331.388H435.142ZM516.65 315.869L519.152 314.213L516.65 315.869ZM403.305 167.696C406.073 163.514 412.212 163.514 414.98 167.696L419.983 164.384C414.842 156.618 403.442 156.618 398.302 164.384L403.305 167.696ZM304.137 317.525L403.305 167.696L398.302 164.384L299.133 314.213L304.137 317.525ZM309.974 328.388C304.393 328.388 301.057 322.178 304.137 317.525L299.133 314.213C293.413 322.855 299.61 334.388 309.974 334.388V328.388ZM383.142 328.388H309.974V334.388H383.142V328.388ZM380.142 331.388V422.049H386.142V331.388H380.142ZM380.142 422.049C380.142 428.4 385.291 433.549 391.642 433.549V427.549C388.605 427.549 386.142 425.087 386.142 422.049H380.142ZM391.642 433.549H394.642V427.549H391.642V433.549ZM394.642 433.549C400.994 433.549 406.142 428.4 406.142 422.049H400.142C400.142 425.087 397.68 427.549 394.642 427.549V433.549ZM406.142 422.049V331.388H400.142V422.049H406.142ZM414.142 328.388H403.142V334.388H414.142V328.388ZM411.142 331.388V422.049H417.142V331.388H411.142ZM411.142 422.049C411.142 428.4 416.291 433.549 422.642 433.549V427.549C419.605 427.549 417.142 425.087 417.142 422.049H411.142ZM422.642 433.549H426.642V427.549H422.642V433.549ZM426.642 433.549C432.994 433.549 438.142 428.4 438.142 422.049H432.142C432.142 425.087 429.68 427.549 426.642 427.549V433.549ZM438.142 422.049V331.388H432.142V422.049H438.142ZM508.311 328.388H435.142V334.388H508.311V328.388ZM514.148 317.524C517.228 322.178 513.891 328.388 508.311 328.388V334.388C518.674 334.388 524.872 322.855 519.152 314.213L514.148 317.524ZM414.98 167.696L514.148 317.524L519.152 314.213L419.983 164.384L414.98 167.696Z" fill="black" mask="url(#path-3-inside-1)"/>
<circle cx="384.908" cy="268.182" r="2.18158" fill="black"/>
<circle cx="397.997" cy="268.182" r="2.18158" fill="black"/>
<path d="M374 273.636C379.748 276.928 394.777 281.538 408.905 273.636" stroke="black" stroke-width="3" stroke-linecap="round"/>
<mask id="path-8-inside-2" fill="white">
<path fill-rule="evenodd" clip-rule="evenodd" d="M145 164.655C145 131.709 171.709 105 204.655 105C237.602 105 264.311 131.709 264.311 164.655V304.914C264.311 330.317 248.432 352.012 226.058 360.615V392.5C226.058 397.194 222.253 401 217.558 401H217.254C212.559 401 208.754 397.194 208.754 392.5V364.431C207.4 364.523 206.033 364.569 204.655 364.569C202.968 364.569 201.298 364.499 199.646 364.362V392.5C199.646 397.194 195.841 401 191.146 401H190.842C186.147 401 182.342 397.194 182.342 392.5V360.256C160.449 351.42 145 329.971 145 304.914V164.655Z"/>
</mask>
<path fill-rule="evenodd" clip-rule="evenodd" d="M145 164.655C145 131.709 171.709 105 204.655 105C237.602 105 264.311 131.709 264.311 164.655V304.914C264.311 330.317 248.432 352.012 226.058 360.615V392.5C226.058 397.194 222.253 401 217.558 401H217.254C212.559 401 208.754 397.194 208.754 392.5V364.431C207.4 364.523 206.033 364.569 204.655 364.569C202.968 364.569 201.298 364.499 199.646 364.362V392.5C199.646 397.194 195.841 401 191.146 401H190.842C186.147 401 182.342 397.194 182.342 392.5V360.256C160.449 351.42 145 329.971 145 304.914V164.655Z" fill="#F885D8"/>
<path d="M226.058 360.615L224.982 357.815L223.058 358.554V360.615H226.058ZM208.754 364.431H211.754V361.22L208.551 361.438L208.754 364.431ZM199.646 364.362L199.895 361.372L196.646 361.102V364.362H199.646ZM182.342 360.256H185.342V358.232L183.464 357.474L182.342 360.256ZM204.655 102C170.052 102 142 130.052 142 164.655H148C148 133.365 173.365 108 204.655 108V102ZM267.311 164.655C267.311 130.052 239.259 102 204.655 102V108C235.945 108 261.311 133.365 261.311 164.655H267.311ZM267.311 304.914V164.655H261.311V304.914H267.311ZM227.135 363.415C250.629 354.382 267.311 331.6 267.311 304.914H261.311C261.311 329.035 246.235 349.643 224.982 357.815L227.135 363.415ZM223.058 360.615V392.5H229.058V360.615H223.058ZM223.058 392.5C223.058 395.538 220.596 398 217.558 398V404C223.91 404 229.058 398.851 229.058 392.5H223.058ZM217.558 398H217.254V404H217.558V398ZM217.254 398C214.216 398 211.754 395.538 211.754 392.5H205.754C205.754 398.851 210.903 404 217.254 404V398ZM211.754 392.5V364.431H205.754V392.5H211.754ZM204.655 367.569C206.101 367.569 207.535 367.52 208.957 367.424L208.551 361.438C207.264 361.525 205.965 361.569 204.655 361.569V367.569ZM199.398 367.352C201.132 367.496 202.885 367.569 204.655 367.569V361.569C203.051 361.569 201.464 361.503 199.895 361.372L199.398 367.352ZM202.646 392.5V364.362H196.646V392.5H202.646ZM191.146 404C197.497 404 202.646 398.851 202.646 392.5H196.646C196.646 395.538 194.184 398 191.146 398V404ZM190.842 404H191.146V398H190.842V404ZM179.342 392.5C179.342 398.851 184.49 404 190.842 404V398C187.804 398 185.342 395.538 185.342 392.5H179.342ZM179.342 360.256V392.5H185.342V360.256H179.342ZM142 304.914C142 331.236 158.231 353.76 181.219 363.038L183.464 357.474C162.667 349.081 148 328.706 148 304.914H142ZM142 164.655V304.914H148V164.655H142Z" fill="black" mask="url(#path-8-inside-2)"/>
<mask id="path-10-inside-3" fill="white">
<path fill-rule="evenodd" clip-rule="evenodd" d="M331 365.797C350.164 354.369 363 333.433 363 309.5C363 273.325 333.675 244 297.5 244C261.325 244 232 273.325 232 309.5C232 333.015 244.391 353.635 263 365.188V390C263 396.075 267.925 401 274 401H281C287.075 401 292 396.075 292 390V374.772C293.813 374.923 295.648 375 297.5 375C299.013 375 300.513 374.949 302 374.848V390C302 396.075 306.925 401 313 401H320C326.075 401 331 396.075 331 390V365.797Z"/>
</mask>
<path fill-rule="evenodd" clip-rule="evenodd" d="M331 365.797C350.164 354.369 363 333.433 363 309.5C363 273.325 333.675 244 297.5 244C261.325 244 232 273.325 232 309.5C232 333.015 244.391 353.635 263 365.188V390C263 396.075 267.925 401 274 401H281C287.075 401 292 396.075 292 390V374.772C293.813 374.923 295.648 375 297.5 375C299.013 375 300.513 374.949 302 374.848V390C302 396.075 306.925 401 313 401H320C326.075 401 331 396.075 331 390V365.797Z" fill="#E0B8FF"/>
<path d="M331 365.797L329.463 363.22L328 364.093V365.797H331ZM263 365.188H266V363.52L264.582 362.639L263 365.188ZM292 374.772L292.249 371.783L289 371.513V374.772H292ZM302 374.848H305V371.637L301.797 371.855L302 374.848ZM360 309.5C360 332.334 347.757 352.311 329.463 363.22L332.537 368.373C352.57 356.426 366 334.533 366 309.5H360ZM297.5 247C332.018 247 360 274.982 360 309.5H366C366 271.668 335.332 241 297.5 241V247ZM235 309.5C235 274.982 262.982 247 297.5 247V241C259.668 241 229 271.668 229 309.5H235ZM264.582 362.639C246.818 351.611 235 331.934 235 309.5H229C229 334.095 241.964 355.66 261.418 367.737L264.582 362.639ZM260 365.188V390H266V365.188H260ZM260 390C260 397.732 266.268 404 274 404V398C269.582 398 266 394.418 266 390H260ZM274 404H281V398H274V404ZM281 404C288.732 404 295 397.732 295 390H289C289 394.418 285.418 398 281 398V404ZM295 390V374.772H289V390H295ZM297.5 372C295.731 372 293.979 371.927 292.249 371.783L291.751 377.762C293.647 377.92 295.565 378 297.5 378V372ZM301.797 371.855C300.378 371.951 298.945 372 297.5 372V378C299.08 378 300.649 377.946 302.203 377.841L301.797 371.855ZM299 374.848V390H305V374.848H299ZM299 390C299 397.732 305.268 404 313 404V398C308.582 398 305 394.418 305 390H299ZM313 404H320V398H313V404ZM320 404C327.732 404 334 397.732 334 390H328C328 394.418 324.418 398 320 398V404ZM334 390V365.797H328V390H334Z" fill="black" mask="url(#path-10-inside-3)"/>
<circle cx="290.908" cy="278.182" r="2.18158" fill="black"/>
<circle cx="303.997" cy="278.182" r="2.18158" fill="black"/>
<path d="M280 283.636C285.748 286.928 300.777 291.538 314.905 283.636" stroke="black" stroke-width="3" stroke-linecap="round"/>
<circle cx="215.908" cy="246.182" r="2.18158" fill="black"/>
<circle cx="228.997" cy="246.182" r="2.18158" fill="black"/>
<path d="M205 251.636C210.748 254.928 225.777 259.538 239.905 251.636" stroke="black" stroke-width="3" stroke-linecap="round"/>
</g>
</svg>
