<svg width="368" height="254" viewBox="0 0 368 254" fill="none" xmlns="http://www.w3.org/2000/svg">
<mask id="mask0_38_15" style="mask-type:alpha" maskUnits="userSpaceOnUse" x="0" y="0" width="368" height="254">
<rect width="368" height="254" fill="#C4C4C4"/>
</mask>
<g mask="url(#mask0_38_15)">
<rect width="368" height="254" fill="#2A4D82"/>
<path fill-rule="evenodd" clip-rule="evenodd" d="M66.5721 42.3136C66.6007 41.8583 66.6152 41.3996 66.6152 40.9378C66.6152 27.7173 54.7335 17 40.0768 17C25.4201 17 13.5384 27.7172 13.5383 40.9376C-1.11839 40.9377 -13 51.655 -13 64.8754C-13 78.0959 -1.11834 88.8132 13.5384 88.8132C18.4873 88.8132 23.1197 87.5914 27.0853 85.4639C31.8748 91.7063 39.8693 95.7954 48.9227 95.7954C56.6898 95.7954 63.6776 92.7857 68.5308 87.9886C70.7402 88.5264 73.0638 88.8132 75.4616 88.8132C90.1184 88.8132 102 78.0959 102 64.8754C102 51.6549 90.1184 40.9376 75.4616 40.9376C72.3436 40.9376 69.3512 41.4226 66.5721 42.3136Z" fill="#85A1CC"/>
<circle cx="312.5" cy="54.5" r="90" fill="#F0E6C6" stroke="#7A735E" stroke-width="3"/>
<circle cx="281.957" cy="55.9914" r="3.99144" fill="#7A735E"/>
<circle cx="305.906" cy="55.9914" r="3.99144" fill="#7A735E"/>
<path d="M262 65.9707C272.517 71.9948 300.014 80.4285 325.863 65.9707" stroke="#7A735E" stroke-width="5" stroke-linecap="round"/>
<path d="M48.3547 151.234C48.6577 145.863 55.1953 143.23 59.1357 146.893L76.2448 162.794C77.8507 164.287 80.1377 164.839 82.284 164.252L105.15 158C110.416 156.56 114.895 161.852 112.535 166.726L102.291 187.892C101.33 189.878 101.477 192.202 102.68 194.028L115.496 213.485C118.447 217.966 114.677 223.869 109.279 223.219L85.8387 220.399C83.6385 220.134 81.4424 221.018 80.0396 222.734L65.0944 241.011C61.6524 245.22 54.8441 243.576 53.8669 238.3L49.6242 215.392C49.2259 213.241 47.7215 211.464 45.6516 210.698L23.599 202.537C18.5201 200.658 18.0821 193.739 22.8767 191.128L43.6948 179.79C45.6489 178.726 46.9152 176.743 47.0387 174.554L48.3547 151.234Z" fill="#FFD34A"/>
<path d="M68.9438 178.395C69.303 179.44 68.7475 180.578 67.7029 180.937C66.6584 181.296 65.5205 180.741 65.1613 179.696C64.8021 178.651 65.3576 177.513 66.4022 177.154C67.4467 176.795 68.5846 177.351 68.9438 178.395Z" fill="#4D4735"/>
<path d="M79.3459 174.818C79.7051 175.863 79.1496 177.001 78.105 177.36C77.0605 177.719 75.9226 177.163 75.5634 176.119C75.2042 175.074 75.7597 173.936 76.8043 173.577C77.8488 173.218 78.9867 173.774 79.3459 174.818Z" fill="#4D4735"/>
<path fill-rule="evenodd" clip-rule="evenodd" d="M88.8803 175.337C89.3668 175.758 89.4006 176.491 88.9558 176.973C79.0326 187.733 64.812 188.34 58.8977 187.304C58.2516 187.191 57.8341 186.588 57.965 185.958C58.096 185.327 58.7259 184.908 59.3719 185.021C64.7998 185.972 78.0344 185.379 87.1941 175.447C87.6389 174.965 88.3938 174.915 88.8803 175.337Z" fill="#4D4735"/>
<path fill-rule="evenodd" clip-rule="evenodd" d="M244 184C261.28 184 275.716 196.175 279.199 212.414C283.45 209.623 288.535 208 294 208C304.62 208 313.808 214.131 318.217 223.047C318.807 223.016 319.402 223 320 223C338.225 223 353 237.775 353 256C353 274.225 338.225 289 320 289C309.265 289 299.726 283.874 293.7 275.935C291.537 291.786 277.945 304 261.5 304C247.173 304 235.012 294.73 230.686 281.861C224.993 287.51 217.154 291 208.5 291C191.103 291 177 276.897 177 259.5C177 242.103 191.103 228 208.5 228C208.631 228 208.762 228.001 208.893 228.002C208.308 225.429 208 222.75 208 220C208 200.118 224.118 184 244 184Z" fill="#85A1CC"/>
<path d="M109.591 9.08978C111.831 6.67948 115.944 7.99247 116.374 11.255L118.239 25.4211C118.414 26.7507 119.277 27.9035 120.519 28.4652L133.752 34.4488C136.799 35.8268 136.847 40.0665 133.83 41.4404L120.73 47.4057C119.501 47.9656 118.663 49.1172 118.517 50.4466L116.968 64.6103C116.611 67.8723 112.527 69.1796 110.233 66.7661L100.272 56.2868C99.3371 55.3032 97.9555 54.8622 96.6235 55.1222L82.4335 57.8922C79.1654 58.5301 76.5942 55.0984 78.1933 52.2329L85.1367 39.7911C85.7884 38.6233 85.7726 37.1991 85.0948 36.0303L77.8744 23.5786C76.2115 20.7109 78.7064 17.2827 81.9887 17.9252L96.2406 20.715C97.5784 20.9768 98.9502 20.5377 99.8633 19.5554L109.591 9.08978Z" fill="#FFD34A"/>
<path d="M99.0436 35.698C98.7895 36.4938 97.9384 36.9331 97.1425 36.679C96.3466 36.425 95.9074 35.5738 96.1615 34.778C96.4155 33.9821 97.2666 33.5429 98.0625 33.7969C98.8584 34.051 99.2976 34.9021 99.0436 35.698Z" fill="#4D4735"/>
<path d="M106.969 38.2282C106.715 39.0241 105.864 39.4633 105.068 39.2093C104.272 38.9552 103.833 38.1041 104.087 37.3082C104.341 36.5124 105.192 36.0731 105.988 36.3272C106.784 36.5812 107.223 37.4324 106.969 38.2282Z" fill="#4D4735"/>
<path fill-rule="evenodd" clip-rule="evenodd" d="M112.518 42.8508C112.623 43.3263 112.312 43.7859 111.824 43.8775C100.944 45.9204 92.0441 39.8635 88.9247 36.563C88.584 36.2025 88.6031 35.6481 88.9673 35.3249C89.3316 35.0017 89.9031 35.0319 90.2439 35.3924C93.1067 38.4215 101.402 44.0414 111.445 42.1557C111.933 42.0641 112.413 42.3753 112.518 42.8508Z" fill="#4D4735"/>
<path d="M181.52 106.693C182.583 104.436 185.855 104.436 186.918 106.693L191.529 116.492C191.962 117.412 192.852 118.045 193.878 118.165L204.812 119.435C207.331 119.728 208.342 122.778 206.48 124.466L198.396 131.793C197.637 132.481 197.298 133.505 197.499 134.499L199.645 145.084C200.139 147.521 197.491 149.407 195.279 148.193L185.671 142.922C184.769 142.427 183.669 142.427 182.767 142.922L173.159 148.193C170.946 149.407 168.299 147.521 168.793 145.084L170.939 134.499C171.14 133.505 170.801 132.481 170.042 131.793L161.958 124.466C160.096 122.778 161.107 119.728 163.625 119.435L174.56 118.165C175.586 118.045 176.476 117.412 176.909 116.492L181.52 106.693Z" fill="#FFD34A"/>
<path d="M183.422 122.051C183.422 122.685 182.909 123.198 182.276 123.198C181.642 123.198 181.129 122.685 181.129 122.051C181.129 121.418 181.642 120.905 182.276 120.905C182.909 120.905 183.422 121.418 183.422 122.051Z" fill="#4D4735"/>
<path d="M189.729 122.051C189.729 122.685 189.215 123.198 188.582 123.198C187.949 123.198 187.435 122.685 187.435 122.051C187.435 121.418 187.949 120.905 188.582 120.905C189.215 120.905 189.729 121.418 189.729 122.051Z" fill="#4D4735"/>
<path fill-rule="evenodd" clip-rule="evenodd" d="M194.801 124.111C194.986 124.43 194.868 124.833 194.537 125.012C187.151 128.995 179.328 126.673 176.315 125.009C175.986 124.827 175.872 124.422 176.06 124.105C176.249 123.787 176.669 123.677 176.998 123.859C179.763 125.387 187.049 127.533 193.866 123.856C194.197 123.677 194.616 123.791 194.801 124.111Z" fill="#4D4735"/>
<path d="M269.5 189.266C271.679 186.643 276.011 187.763 276.644 191.114L279.394 205.664C279.652 207.03 280.612 208.173 281.93 208.682L295.968 214.108C299.201 215.357 299.495 219.741 296.453 221.338L283.244 228.268C282.004 228.919 281.204 230.159 281.13 231.543L280.346 246.288C280.166 249.684 276.016 251.273 273.502 248.909L262.589 238.642C261.565 237.678 260.11 237.302 258.747 237.648L244.224 241.335C240.88 242.185 238.02 238.782 239.509 235.725L245.974 222.449C246.58 221.203 246.482 219.73 245.713 218.56L237.521 206.094C235.634 203.223 238.017 199.531 241.451 200.006L256.359 202.068C257.759 202.261 259.153 201.728 260.041 200.658L269.5 189.266Z" fill="#FFD34A"/>
<path d="M265.632 214.069C265.415 214.908 264.559 215.411 263.721 215.195C262.883 214.978 262.379 214.123 262.596 213.284C262.813 212.446 263.668 211.942 264.506 212.159C265.345 212.376 265.848 213.231 265.632 214.069Z" fill="#4D4735"/>
<path d="M273.979 216.229C273.762 217.067 272.907 217.571 272.069 217.354C271.23 217.137 270.727 216.282 270.943 215.443C271.16 214.605 272.016 214.102 272.854 214.318C273.692 214.535 274.196 215.39 273.979 216.229Z" fill="#4D4735"/>
<path fill-rule="evenodd" clip-rule="evenodd" d="M279.988 220.691C280.124 221.177 279.829 221.67 279.33 221.793C268.19 224.537 258.63 218.785 255.212 215.55C254.838 215.197 254.826 214.622 255.184 214.267C255.542 213.911 256.135 213.909 256.509 214.263C259.646 217.231 268.555 222.566 278.838 220.034C279.337 219.911 279.852 220.205 279.988 220.691Z" fill="#4D4735"/>
<path d="M346.799 162.696C347.059 160.103 350.282 158.963 352.115 160.816L360.07 168.86C360.817 169.615 361.914 169.929 362.966 169.689L374.177 167.131C376.76 166.542 378.818 169.194 377.573 171.505L372.163 181.537C371.656 182.479 371.678 183.606 372.223 184.514L378.023 194.191C379.359 196.42 377.408 199.199 374.806 198.774L363.507 196.93C362.447 196.757 361.364 197.14 360.648 197.942L353.022 206.48C351.266 208.446 348.001 207.512 347.639 204.939L346.065 193.767C345.917 192.718 345.225 191.827 344.238 191.414L333.724 187.015C331.303 186.001 331.236 182.645 333.614 181.479L343.941 176.419C344.91 175.944 345.565 175.01 345.671 173.953L346.799 162.696Z" fill="#FFD34A"/>
<path d="M352.417 179.144C352.638 179.768 352.311 180.452 351.688 180.673C351.064 180.893 350.38 180.566 350.159 179.943C349.938 179.319 350.265 178.635 350.889 178.414C351.512 178.193 352.197 178.52 352.417 179.144Z" fill="#4D4735"/>
<path d="M358.628 176.947C358.849 177.571 358.522 178.255 357.899 178.476C357.275 178.696 356.591 178.37 356.37 177.746C356.149 177.122 356.476 176.438 357.1 176.217C357.723 175.997 358.408 176.323 358.628 176.947Z" fill="#4D4735"/>
<path fill-rule="evenodd" clip-rule="evenodd" d="M364.341 177.208C364.635 177.458 364.659 177.896 364.395 178.187C358.509 184.683 349.995 185.121 346.448 184.532C346.06 184.468 345.807 184.109 345.882 183.731C345.957 183.352 346.332 183.098 346.72 183.162C349.976 183.703 357.898 183.279 363.332 177.283C363.596 176.991 364.048 176.958 364.341 177.208Z" fill="#4D4735"/>
</g>
</svg>
