<svg width="646" height="316" viewBox="0 0 646 316" fill="none" xmlns="http://www.w3.org/2000/svg">
<rect width="646" height="316" fill="#F6F7F1"/>
<mask id="mask0" mask-type="alpha" maskUnits="userSpaceOnUse" x="223" y="58" width="200" height="200">
<circle cx="323" cy="158" r="100" fill="#C4C4C4"/>
</mask>
<g mask="url(#mask0)">
<circle cx="323" cy="158" r="100" fill="#4393D0"/>
<path d="M195.47 166.148C87.5285 261.566 161.179 272.748 217.834 272.748C516.76 272.748 366.924 216.836 381.833 193.729C401.299 163.558 330.397 46.8757 195.47 166.148Z" fill="#E3933C"/>
<mask id="mask1" mask-type="alpha" maskUnits="userSpaceOnUse" x="279" y="204" width="26" height="26">
<ellipse cx="291.995" cy="217.174" rx="12.6727" ry="12.6727" fill="#FAFBFF"/>
</mask>
<g mask="url(#mask1)">
<ellipse cx="291.995" cy="217.174" rx="12.6727" ry="12.6727" fill="#FAFBFF"/>
<ellipse cx="298.332" cy="217.173" rx="12.6727" ry="12.6727" fill="#302C2C"/>
</g>
<mask id="mask2" mask-type="alpha" maskUnits="userSpaceOnUse" x="313" y="204" width="26" height="26">
<ellipse cx="325.79" cy="217.174" rx="12.6727" ry="12.6727" fill="#FAFBFF"/>
</mask>
<g mask="url(#mask2)">
<ellipse cx="325.79" cy="217.174" rx="12.6727" ry="12.6727" fill="#FAFBFF"/>
<ellipse cx="332.126" cy="217.173" rx="12.6727" ry="12.6727" fill="#302C2C"/>
</g>
</g>
<path d="M301.676 87.5351C277.83 92.9684 286.192 100.902 294.998 105.063C300.188 107.515 318.834 106.338 331.201 110.765C343.569 115.191 344.989 115.798 350.217 111.18C355.445 106.563 331.485 80.7434 301.676 87.5351Z" fill="#EE614D"/>
<path d="M328.747 75.2415C324.916 80.0307 317.368 91.1035 317.828 97.0805" stroke="#EE614D" stroke-width="4"/>
</svg>
