<svg width="646" height="316" viewBox="0 0 646 316" fill="none" xmlns="http://www.w3.org/2000/svg">
<rect width="646" height="316" rx="42" fill="#F6F7F1"/>
<mask id="mask0" mask-type="alpha" maskUnits="userSpaceOnUse" x="218" y="58" width="210" height="200">
<ellipse cx="322.706" cy="158" rx="104.706" ry="100" fill="#C4C4C4"/>
</mask>
<g mask="url(#mask0)">
<ellipse cx="322.706" cy="158" rx="104.706" ry="100" fill="#4393D0"/>
<path d="M189.175 166.148C76.1537 261.566 153.27 272.748 212.591 272.748C525.584 272.748 368.697 216.836 384.308 193.729C404.69 163.558 330.451 46.8756 189.175 166.148Z" fill="#E3933C"/>
<mask id="mask1" mask-type="alpha" maskUnits="userSpaceOnUse" x="276" y="204" width="28" height="26">
<ellipse cx="290.242" cy="217.174" rx="13.2691" ry="12.6727" fill="#FAFBFF"/>
</mask>
<g mask="url(#mask1)">
<ellipse cx="290.242" cy="217.174" rx="13.2691" ry="12.6727" fill="#FAFBFF"/>
<ellipse cx="298.081" cy="217.174" rx="13.2691" ry="12.6727" fill="#302C2C"/>
</g>
<mask id="mask2" mask-type="alpha" maskUnits="userSpaceOnUse" x="312" y="204" width="27" height="26">
<ellipse cx="325.627" cy="217.174" rx="13.2691" ry="12.6727" fill="#FAFBFF"/>
</mask>
<g mask="url(#mask2)">
<ellipse cx="325.627" cy="217.174" rx="13.2691" ry="12.6727" fill="#FAFBFF"/>
<ellipse cx="333.464" cy="217.174" rx="13.2691" ry="12.6727" fill="#302C2C"/>
</g>
</g>
<path d="M303.153 217.196C303.153 224.238 297.155 230.063 289.609 230.063C282.064 230.063 276.065 224.238 276.065 217.196C276.065 210.153 282.064 204.328 289.609 204.328C297.155 204.328 303.153 210.153 303.153 217.196Z" stroke="#302C2C" stroke-width="3"/>
<path d="M339.259 217.196C339.259 224.238 333.261 230.063 325.715 230.063C318.169 230.063 312.171 224.238 312.171 217.196C312.171 210.153 318.169 204.328 325.715 204.328C333.261 204.328 339.259 210.153 339.259 217.196Z" stroke="#302C2C" stroke-width="3"/>
<path d="M304.051 218.345C305.455 217.771 308.985 216.966 311.874 218.345" stroke="#302C2C" stroke-width="3"/>
</svg>
