<svg width="118" height="139" viewBox="0 0 118 139" fill="none" xmlns="http://www.w3.org/2000/svg">
<mask id="path-1-inside-1" fill="white">
<path fill-rule="evenodd" clip-rule="evenodd" d="M66.8886 4.89399C62.9344 -1.08022 54.1651 -1.08022 50.2108 4.89399L1.67785 78.2198C-2.72213 84.8675 2.04482 93.7392 10.0167 93.7392H43.6219V133.173C43.6219 136.321 46.1743 138.873 49.3228 138.873C52.4712 138.873 55.0236 136.321 55.0236 133.173V93.7392H61.2944V132.888C61.2944 136.193 63.9744 138.873 67.2803 138.873C70.5862 138.873 73.2662 136.193 73.2662 132.888V93.7392H107.083C115.055 93.7392 119.822 84.8675 115.422 78.2198L66.8886 4.89399Z"/>
</mask>
<path fill-rule="evenodd" clip-rule="evenodd" d="M66.8886 4.89399C62.9344 -1.08022 54.1651 -1.08022 50.2108 4.89399L1.67785 78.2198C-2.72213 84.8675 2.04482 93.7392 10.0167 93.7392H43.6219V133.173C43.6219 136.321 46.1743 138.873 49.3228 138.873C52.4712 138.873 55.0236 136.321 55.0236 133.173V93.7392H61.2944V132.888C61.2944 136.193 63.9744 138.873 67.2803 138.873C70.5862 138.873 73.2662 136.193 73.2662 132.888V93.7392H107.083C115.055 93.7392 119.822 84.8675 115.422 78.2198L66.8886 4.89399Z" fill="#FFCB8E"/>
<path d="M50.2108 4.89399L48.5431 3.79012V3.79012L50.2108 4.89399ZM66.8886 4.89399L68.5564 3.79012L66.8886 4.89399ZM1.67785 78.2198L3.34562 79.3237H3.34562L1.67785 78.2198ZM43.6219 93.7392H45.6219V91.7392H43.6219V93.7392ZM55.0236 93.7392V91.7392H53.0236V93.7392H55.0236ZM61.2944 93.7392H63.2944V91.7392H61.2944V93.7392ZM73.2662 93.7392V91.7392H71.2662V93.7392H73.2662ZM115.422 78.2198L117.089 77.116L115.422 78.2198ZM51.8786 5.99786C55.042 1.21849 62.0575 1.21849 65.2208 5.99785L68.5564 3.79012C63.8113 -3.37893 53.2881 -3.37893 48.5431 3.79012L51.8786 5.99786ZM3.34562 79.3237L51.8786 5.99786L48.5431 3.79012L0.010071 77.116L3.34562 79.3237ZM10.0167 91.7392C3.6392 91.7392 -0.174356 84.6419 3.34562 79.3237L0.0100713 77.116C-5.26991 85.0932 0.450442 95.7392 10.0167 95.7392V91.7392ZM43.6219 91.7392H10.0167V95.7392H43.6219V91.7392ZM41.6219 93.7392V133.173H45.6219V93.7392H41.6219ZM41.6219 133.173C41.6219 137.426 45.0697 140.873 49.3228 140.873V136.873C47.2789 136.873 45.6219 135.216 45.6219 133.173H41.6219ZM49.3228 140.873C53.5758 140.873 57.0236 137.426 57.0236 133.173H53.0236C53.0236 135.216 51.3667 136.873 49.3228 136.873V140.873ZM57.0236 133.173V93.7392H53.0236V133.173H57.0236ZM61.2944 91.7392H55.0236V95.7392H61.2944V91.7392ZM59.2944 93.7392V132.888H63.2944V93.7392H59.2944ZM59.2944 132.888C59.2944 137.298 62.8698 140.873 67.2803 140.873V136.873C65.079 136.873 63.2944 135.089 63.2944 132.888H59.2944ZM67.2803 140.873C71.6908 140.873 75.2662 137.298 75.2662 132.888H71.2662C71.2662 135.089 69.4816 136.873 67.2803 136.873V140.873ZM75.2662 132.888V93.7392H71.2662V132.888H75.2662ZM107.083 91.7392H73.2662V95.7392H107.083V91.7392ZM113.754 79.3237C117.274 84.6419 113.46 91.7392 107.083 91.7392V95.7392C116.649 95.7392 122.369 85.0932 117.089 77.116L113.754 79.3237ZM65.2208 5.99785L113.754 79.3237L117.089 77.116L68.5564 3.79012L65.2208 5.99785Z" fill="black" mask="url(#path-1-inside-1)"/>
<circle cx="54.6181" cy="67.4334" r="1.24367" fill="black"/>
<circle cx="62.0801" cy="67.4334" r="1.24367" fill="black"/>
<path d="M48.3998 70.5426C51.6768 72.4196 60.2443 75.0474 68.2986 70.5426" stroke="black" stroke-width="2" stroke-linecap="round"/>
</svg>
