<svg width="646" height="316" xmlns="http://www.w3.org/2000/svg">

 <g>
  <title>background</title>
  <rect fill="none" id="canvas_background" height="318" width="648" y="-1" x="-1"/>
 </g>
 <g>
  <title>Layer 1</title>
  <rect x="0" id="svg_1" fill="#C8DBFF" height="316" width="646" y="-0.11919"/>
  <path id="svg_2" stroke-width="3" stroke="black" fill="#FFF740" d="m369.804,37.77981c1.588,-4.0597 7.444,-3.7153 8.545,0.5025l6.281,24.0523c0.82,3.1437 3.572,5.4014 6.816,5.5922l24.816,1.4594c4.351,0.256 5.833,5.931 2.162,8.2819l-20.934,13.4056c-2.736,1.7521 -4.033,5.0671 -3.212,8.2111l6.28,24.052c1.102,4.218 -3.838,7.381 -7.208,4.616l-19.218,-15.767c-2.512,-2.061 -6.066,-2.27 -8.802,-0.518l-20.934,13.406c-3.671,2.351 -8.206,-1.37 -6.618,-5.429l9.057,-23.15c1.184,-3.026 0.284,-6.4703 -2.228,-8.5312l-19.218,-15.7671c-3.371,-2.765 -1.234,-8.2272 3.118,-7.9713l24.816,1.4595c3.243,0.1907 6.241,-1.7288 7.425,-4.7547l9.056,-23.1502z"/>
  <path id="svg_3" stroke-width="3" stroke="black" fill="#FFF740" d="m451.13,34.53461c2.999,-3.1639 8.295,-0.642 7.728,3.6803l-3.23,24.648c-0.422,3.2216 1.278,6.3487 4.212,7.7458l22.444,10.6884c3.935,1.8744 3.173,7.69 -1.113,8.487l-24.439,4.5447c-3.195,0.594 -5.643,3.178 -6.066,6.399l-3.229,24.648c-0.567,4.323 -6.333,5.395 -8.416,1.565l-11.874,-21.839c-1.552,-2.854 -4.766,-4.385 -7.961,-3.791l-24.439,4.545c-4.286,0.797 -7.088,-4.356 -4.089,-7.52l17.101,-18.042c2.235,-2.3582 2.697,-5.8875 1.145,-8.742l-11.874,-21.8391c-2.083,-3.8298 1.952,-8.0868 5.888,-6.2124l22.443,10.6884c2.934,1.3971 6.433,0.7463 8.669,-1.6119l17.1,-18.0422z"/>
  <circle id="svg_4" fill="black" r="1.82745" cy="71.37521" cx="429.286"/>
  <circle id="svg_5" fill="black" r="1.82745" cy="71.37521" cx="440.251"/>
  <path id="svg_6" stroke-linecap="round" stroke-width="3" stroke="black" d="m420.149,75.94381c4.815,2.7581 17.404,6.6194 29.239,0"/>
  <circle id="svg_7" fill="black" r="1.82745" cy="73.20241" cx="366.239"/>
  <circle id="svg_8" fill="black" r="1.82745" cy="73.20241" cx="377.204"/>
  <path id="svg_9" stroke-linecap="round" stroke-width="3" stroke="black" d="m357.102,77.77091c4.815,2.7581 17.404,6.6194 29.239,0"/>
  <rect id="svg_10" stroke-width="3" stroke="black" fill="white" rx="6.5" height="142.282" width="229.086" y="88.38081" x="208.5"/>
  <path id="svg_11" stroke-width="3" stroke="black" d="m207.914,110.63781l230.259,0"/>
  <circle id="svg_12" fill="black" r="2.74118" cy="99.67281" cx="221.62"/>
  <circle id="svg_13" fill="black" r="2.74118" cy="99.67281" cx="230.757"/>
  <circle id="svg_14" fill="black" r="2.74118" cy="99.67281" cx="239.894"/>
  <path id="svg_15" stroke-width="3" stroke="black" fill="#FFF740" d="m191.71,170.36981c0.502,-4.33 6.252,-5.488 8.391,-1.69l15.837,28.122c1.595,2.831 4.831,4.314 8.016,3.672l31.64,-6.372c4.273,-0.86 7.151,4.25 4.2,7.458l-21.852,23.753c-2.2,2.391 -2.61,5.927 -1.015,8.758l15.837,28.122c2.139,3.799 -1.832,8.115 -5.795,6.3l-29.343,-13.443c-2.954,-1.353 -6.443,-0.65 -8.643,1.741l-21.852,23.752c-2.951,3.209 -8.283,0.766 -7.781,-3.565l3.717,-32.06c0.374,-3.227 -1.373,-6.329 -4.327,-7.682l-29.342,-13.443c-3.963,-1.815 -3.288,-7.641 0.986,-8.502l31.639,-6.372c3.186,-0.642 5.596,-3.261 5.97,-6.489l3.717,-32.06z"/>
  <circle id="svg_16" fill="black" r="1.82745" cy="216.37481" cx="201.149"/>
  <circle id="svg_17" fill="black" r="1.82745" cy="216.37481" cx="212.114"/>
  <path id="svg_18" stroke-linecap="round" stroke-width="3" stroke="black" d="m192.012,220.94281c4.815,2.759 17.404,6.62 29.239,0"/>
 </g>
</svg>